<svg width="257" height="289" viewBox="0 0 257 289" fill="none" xmlns="http://www.w3.org/2000/svg">
<path d="M86.5027 289C60.8418 289 43.0765 266.3 30.246 246.561C-2.32362 196.226 -9.23234 133.06 14.4547 96.5429C30.246 71.8689 55.907 57.0645 80.581 57.0645C93.4115 57.0645 104.268 61.0124 113.151 63.9732C120.059 66.9341 126.968 68.908 133.877 68.908C139.799 68.908 144.733 66.9341 151.642 63.9732C160.525 61.0124 171.381 57.0645 186.186 57.0645C207.899 57.0645 230.599 68.908 246.39 88.6472C248.364 90.6211 249.351 93.582 248.364 96.5429C247.377 99.5038 246.39 101.478 243.429 103.452C225.664 113.321 215.794 131.086 217.768 150.826C218.755 171.552 231.586 188.33 250.338 195.239C253.299 196.226 255.273 198.2 256.26 201.161C257.247 204.121 257.247 206.095 256.26 209.056C249.351 223.861 246.39 230.769 237.508 243.6C222.703 265.313 204.938 288.013 181.251 288.013C170.394 288.013 163.486 285.052 157.564 282.091C151.642 279.13 145.72 276.17 133.877 276.17C123.02 276.17 117.098 279.13 110.19 282.091C104.268 286.039 97.3593 289 86.5027 289Z" fill="#006B0A"/>
<path d="M136.784 57.2233C136.138 57.2233 136.138 57.2233 135.493 57.2233C132.265 57.2233 129.683 54.641 129.037 52.0587C127.1 41.084 130.974 28.1726 139.366 17.8434C147.113 8.15988 160.025 1.70417 171.645 0.413025C174.873 0.413025 178.101 2.34974 178.746 6.22316C180.683 17.8434 176.809 30.1093 168.417 40.4384C161.316 50.7676 148.404 57.2233 136.784 57.2233Z" fill="#006B0A"/>
</svg>
