<svg width="271" height="269" viewBox="0 0 271 269" fill="none" xmlns="http://www.w3.org/2000/svg">
<path d="M135.5 0.454712C61.4795 0.454712 0.916992 60.8826 0.916992 135.307C0.916992 202.599 50.1745 258.451 114.505 268.545V174.337H80.3212V135.307H114.505V105.564C114.505 71.7839 134.558 53.2114 165.378 53.2114C180.047 53.2114 195.39 55.7685 195.39 55.7685V89.0105H178.432C161.744 89.0105 156.495 99.3735 156.495 110.006V135.307H193.909L187.853 174.337H156.495V268.545C188.209 263.536 217.087 247.355 237.917 222.921C258.746 198.489 270.156 167.414 270.084 135.307C270.084 60.8826 209.521 0.454712 135.5 0.454712Z" fill="#006B0A"/>
</svg>
