<svg width="236" height="236" viewBox="0 0 236 236" fill="none" xmlns="http://www.w3.org/2000/svg">
<g clip-path="url(#clip0_2739_842)">
<path fill-rule="evenodd" clip-rule="evenodd" d="M118 0C183.171 0 236 54.1612 236 120.985C236 174.427 202.228 219.763 155.371 235.775C149.388 236.967 147.264 233.189 147.264 229.967C147.264 225.979 147.406 212.952 147.406 196.763C147.406 185.482 143.63 178.119 139.393 174.367C165.672 171.37 193.284 161.138 193.284 114.67C193.284 101.454 188.706 90.6691 181.13 82.1967C182.357 79.1405 186.405 66.8346 179.974 50.173C179.974 50.173 170.085 46.9312 147.559 62.578C138.131 59.8994 128.03 58.5517 118 58.5045C107.97 58.5517 97.881 59.8994 88.4646 62.578C65.9148 46.9312 56.0028 50.173 56.0028 50.173C49.5954 66.8346 53.6428 79.1405 54.8582 82.1967C47.318 90.6691 42.7042 101.454 42.7042 114.67C42.7042 161.02 70.2572 171.409 96.465 174.465C93.0902 177.486 90.034 182.815 88.972 190.638C82.246 193.73 65.1596 199.08 54.634 180.59C54.634 180.59 48.3918 168.965 36.5446 168.115C36.5446 168.115 25.0396 167.963 35.7422 175.467C35.7422 175.467 43.4712 179.184 48.8402 193.167C48.8402 193.167 55.7668 214.761 88.5944 207.445C88.6534 217.558 88.7596 227.088 88.7596 229.967C88.7596 233.165 86.5884 236.908 80.7002 235.787C33.807 219.798 0 174.439 0 120.985C0 54.1612 52.8404 0 118 0Z" fill="#006B0A"/>
</g>
<defs>
<clipPath id="clip0_2739_842">
<rect width="236" height="236" fill="white"/>
</clipPath>
</defs>
</svg>
