<svg width="242" height="246" viewBox="0 0 242 246" fill="none" xmlns="http://www.w3.org/2000/svg">
<path d="M239.759 104.122L238.523 98.8773H124.533V147.123H192.641C185.57 180.701 152.757 198.376 125.955 198.376C106.453 198.376 85.8961 190.173 72.2898 176.988C65.1112 169.92 59.397 161.506 55.4745 152.227C51.552 142.948 49.4981 132.986 49.4305 122.912C49.4305 102.591 58.5633 82.2633 71.8523 68.8922C85.1414 55.5211 105.212 48.0398 125.167 48.0398C148.021 48.0398 164.4 60.175 170.525 65.7094L204.809 31.6062C194.752 22.7687 167.123 0.5 124.062 0.5C90.8398 0.5 58.9844 13.2258 35.6984 36.4352C12.7187 59.2891 0.824219 92.3367 0.824219 123C0.824219 153.663 12.0789 185.059 34.3477 208.094C58.1422 232.659 91.8406 245.5 126.54 245.5C158.111 245.5 188.036 233.13 209.364 210.686C230.331 188.592 241.176 158.022 241.176 125.975C241.176 112.484 239.82 104.472 239.759 104.122Z" fill="#006B0A"/>
</svg>
