<svg width="2000" height="2000" viewBox="0 0 2000 2000" fill="none" xmlns="http://www.w3.org/2000/svg">
<g clip-path="url(#clip0_2752_111)">
<mask id="mask0_2752_111" style="mask-type:luminance" maskUnits="userSpaceOnUse" x="101" y="101" width="1798" height="1798">
<path d="M163 597H101V659H163V597Z" fill="white"/>
<path d="M163 659H101V721H163V659Z" fill="white"/>
<path d="M163 721H101V783H163V721Z" fill="white"/>
<path d="M163 845H101V907H163V845Z" fill="white"/>
<path d="M163 1031H101V1093H163V1031Z" fill="white"/>
<path d="M163 1093H101V1155H163V1093Z" fill="white"/>
<path d="M163 1217H101V1279H163V1217Z" fill="white"/>
<path d="M225 597H163V659H225V597Z" fill="white"/>
<path d="M225 659H163V721H225V659Z" fill="white"/>
<path d="M225 783H163V845H225V783Z" fill="white"/>
<path d="M225 845H163V907H225V845Z" fill="white"/>
<path d="M225 907H163V969H225V907Z" fill="white"/>
<path d="M225 969H163V1031H225V969Z" fill="white"/>
<path d="M225 1093H163V1155H225V1093Z" fill="white"/>
<path d="M225 1217H163V1279H225V1217Z" fill="white"/>
<path d="M287 597H225V659H287V597Z" fill="white"/>
<path d="M287 659H225V721H287V659Z" fill="white"/>
<path d="M287 845H225V907H287V845Z" fill="white"/>
<path d="M287 907H225V969H287V907Z" fill="white"/>
<path d="M287 1031H225V1093H287V1031Z" fill="white"/>
<path d="M287 1217H225V1279H287V1217Z" fill="white"/>
<path d="M287 1279H225V1341H287V1279Z" fill="white"/>
<path d="M349 597H287V659H349V597Z" fill="white"/>
<path d="M349 721H287V783H349V721Z" fill="white"/>
<path d="M349 845H287V907H349V845Z" fill="white"/>
<path d="M349 907H287V969H349V907Z" fill="white"/>
<path d="M349 969H287V1031H349V969Z" fill="white"/>
<path d="M349 1217H287V1279H349V1217Z" fill="white"/>
<path d="M411 597H349V659H411V597Z" fill="white"/>
<path d="M411 659H349V721H411V659Z" fill="white"/>
<path d="M411 783H349V845H411V783Z" fill="white"/>
<path d="M411 969H349V1031H411V969Z" fill="white"/>
<path d="M411 1093H349V1155H411V1093Z" fill="white"/>
<path d="M411 1279H349V1341H411V1279Z" fill="white"/>
<path d="M473 659H411V721H473V659Z" fill="white"/>
<path d="M473 721H411V783H473V721Z" fill="white"/>
<path d="M473 1031H411V1093H473V1031Z" fill="white"/>
<path d="M473 1155H411V1217H473V1155Z" fill="white"/>
<path d="M473 1279H411V1341H473V1279Z" fill="white"/>
<path d="M535 597H473V659H535V597Z" fill="white"/>
<path d="M535 721H473V783H535V721Z" fill="white"/>
<path d="M535 845H473V907H535V845Z" fill="white"/>
<path d="M535 969H473V1031H535V969Z" fill="white"/>
<path d="M535 1093H473V1155H535V1093Z" fill="white"/>
<path d="M535 1217H473V1279H535V1217Z" fill="white"/>
<path d="M535 1341H473V1403H535V1341Z" fill="white"/>
<path d="M597 597H535V659H597V597Z" fill="white"/>
<path d="M597 783H535V845H597V783Z" fill="white"/>
<path d="M597 907H535V969H597V907Z" fill="white"/>
<path d="M597 1093H535V1155H597V1093Z" fill="white"/>
<path d="M597 1155H535V1217H597V1155Z" fill="white"/>
<path d="M597 1217H535V1279H597V1217Z" fill="white"/>
<path d="M659 163H597V225H659V163Z" fill="white"/>
<path d="M659 225H597V287H659V225Z" fill="white"/>
<path d="M659 349H597V411H659V349Z" fill="white"/>
<path d="M659 473H597V535H659V473Z" fill="white"/>
<path d="M659 535H597V597H659V535Z" fill="white"/>
<path d="M659 783H597V845H659V783Z" fill="white"/>
<path d="M659 845H597V907H659V845Z" fill="white"/>
<path d="M659 1031H597V1093H659V1031Z" fill="white"/>
<path d="M659 1093H597V1155H659V1093Z" fill="white"/>
<path d="M659 1217H597V1279H659V1217Z" fill="white"/>
<path d="M659 1341H597V1403H659V1341Z" fill="white"/>
<path d="M659 1465H597V1527H659V1465Z" fill="white"/>
<path d="M659 1589H597V1651H659V1589Z" fill="white"/>
<path d="M659 1651H597V1713H659V1651Z" fill="white"/>
<path d="M659 1713H597V1775H659V1713Z" fill="white"/>
<path d="M659 1775H597V1837H659V1775Z" fill="white"/>
<path d="M659 1837H597V1899H659V1837Z" fill="white"/>
<path d="M721 101H659V163H721V101Z" fill="white"/>
<path d="M721 225H659V287H721V225Z" fill="white"/>
<path d="M721 349H659V411H721V349Z" fill="white"/>
<path d="M721 411H659V473H721V411Z" fill="white"/>
<path d="M721 535H659V597H721V535Z" fill="white"/>
<path d="M721 597H659V659H721V597Z" fill="white"/>
<path d="M721 969H659V1031H721V969Z" fill="white"/>
<path d="M721 1217H659V1279H721V1217Z" fill="white"/>
<path d="M721 1279H659V1341H721V1279Z" fill="white"/>
<path d="M721 1403H659V1465H721V1403Z" fill="white"/>
<path d="M721 1465H659V1527H721V1465Z" fill="white"/>
<path d="M721 1713H659V1775H721V1713Z" fill="white"/>
<path d="M721 1837H659V1899H721V1837Z" fill="white"/>
<path d="M783 287H721V349H783V287Z" fill="white"/>
<path d="M783 411H721V473H783V411Z" fill="white"/>
<path d="M783 473H721V535H783V473Z" fill="white"/>
<path d="M783 535H721V597H783V535Z" fill="white"/>
<path d="M783 659H721V721H783V659Z" fill="white"/>
<path d="M783 783H721V845H783V783Z" fill="white"/>
<path d="M783 845H721V907H783V845Z" fill="white"/>
<path d="M783 907H721V969H783V907Z" fill="white"/>
<path d="M783 1217H721V1279H783V1217Z" fill="white"/>
<path d="M783 1589H721V1651H783V1589Z" fill="white"/>
<path d="M783 1651H721V1713H783V1651Z" fill="white"/>
<path d="M783 1713H721V1775H783V1713Z" fill="white"/>
<path d="M783 1775H721V1837H783V1775Z" fill="white"/>
<path d="M783 1837H721V1899H783V1837Z" fill="white"/>
<path d="M845 101H783V163H845V101Z" fill="white"/>
<path d="M845 287H783V349H845V287Z" fill="white"/>
<path d="M845 349H783V411H845V349Z" fill="white"/>
<path d="M845 535H783V597H845V535Z" fill="white"/>
<path d="M845 597H783V659H845V597Z" fill="white"/>
<path d="M845 659H783V721H845V659Z" fill="white"/>
<path d="M845 845H783V907H845V845Z" fill="white"/>
<path d="M845 1031H783V1093H845V1031Z" fill="white"/>
<path d="M845 1155H783V1217H845V1155Z" fill="white"/>
<path d="M845 1217H783V1279H845V1217Z" fill="white"/>
<path d="M845 1279H783V1341H845V1279Z" fill="white"/>
<path d="M845 1341H783V1403H845V1341Z" fill="white"/>
<path d="M845 1403H783V1465H845V1403Z" fill="white"/>
<path d="M845 1465H783V1527H845V1465Z" fill="white"/>
<path d="M845 1651H783V1713H845V1651Z" fill="white"/>
<path d="M845 1775H783V1837H845V1775Z" fill="white"/>
<path d="M907 473H845V535H907V473Z" fill="white"/>
<path d="M907 535H845V597H907V535Z" fill="white"/>
<path d="M907 597H845V659H907V597Z" fill="white"/>
<path d="M907 721H845V783H907V721Z" fill="white"/>
<path d="M907 1031H845V1093H907V1031Z" fill="white"/>
<path d="M907 1155H845V1217H907V1155Z" fill="white"/>
<path d="M907 1217H845V1279H907V1217Z" fill="white"/>
<path d="M907 1465H845V1527H907V1465Z" fill="white"/>
<path d="M907 1527H845V1589H907V1527Z" fill="white"/>
<path d="M907 1651H845V1713H907V1651Z" fill="white"/>
<path d="M969 287H907V349H969V287Z" fill="white"/>
<path d="M969 349H907V411H969V349Z" fill="white"/>
<path d="M969 535H907V597H969V535Z" fill="white"/>
<path d="M969 659H907V721H969V659Z" fill="white"/>
<path d="M969 845H907V907H969V845Z" fill="white"/>
<path d="M969 907H907V969H969V907Z" fill="white"/>
<path d="M969 969H907V1031H969V969Z" fill="white"/>
<path d="M969 1341H907V1403H969V1341Z" fill="white"/>
<path d="M969 1403H907V1465H969V1403Z" fill="white"/>
<path d="M969 1465H907V1527H969V1465Z" fill="white"/>
<path d="M969 1527H907V1589H969V1527Z" fill="white"/>
<path d="M969 1775H907V1837H969V1775Z" fill="white"/>
<path d="M969 1837H907V1899H969V1837Z" fill="white"/>
<path d="M1031 163H969V225H1031V163Z" fill="white"/>
<path d="M1031 225H969V287H1031V225Z" fill="white"/>
<path d="M1031 349H969V411H1031V349Z" fill="white"/>
<path d="M1031 473H969V535H1031V473Z" fill="white"/>
<path d="M1031 535H969V597H1031V535Z" fill="white"/>
<path d="M1031 597H969V659H1031V597Z" fill="white"/>
<path d="M1031 659H969V721H1031V659Z" fill="white"/>
<path d="M1031 845H969V907H1031V845Z" fill="white"/>
<path d="M1031 907H969V969H1031V907Z" fill="white"/>
<path d="M1031 1031H969V1093H1031V1031Z" fill="white"/>
<path d="M1031 1093H969V1155H1031V1093Z" fill="white"/>
<path d="M1031 1155H969V1217H1031V1155Z" fill="white"/>
<path d="M1031 1527H969V1589H1031V1527Z" fill="white"/>
<path d="M1031 1713H969V1775H1031V1713Z" fill="white"/>
<path d="M1031 1775H969V1837H1031V1775Z" fill="white"/>
<path d="M1031 1837H969V1899H1031V1837Z" fill="white"/>
<path d="M1093 163H1031V225H1093V163Z" fill="white"/>
<path d="M1093 411H1031V473H1093V411Z" fill="white"/>
<path d="M1093 659H1031V721H1093V659Z" fill="white"/>
<path d="M1093 783H1031V845H1093V783Z" fill="white"/>
<path d="M1093 845H1031V907H1093V845Z" fill="white"/>
<path d="M1093 907H1031V969H1093V907Z" fill="white"/>
<path d="M1093 969H1031V1031H1093V969Z" fill="white"/>
<path d="M1093 1093H1031V1155H1093V1093Z" fill="white"/>
<path d="M1093 1279H1031V1341H1093V1279Z" fill="white"/>
<path d="M1093 1403H1031V1465H1093V1403Z" fill="white"/>
<path d="M1093 1527H1031V1589H1093V1527Z" fill="white"/>
<path d="M1155 101H1093V163H1155V101Z" fill="white"/>
<path d="M1155 163H1093V225H1155V163Z" fill="white"/>
<path d="M1155 225H1093V287H1155V225Z" fill="white"/>
<path d="M1155 473H1093V535H1155V473Z" fill="white"/>
<path d="M1155 597H1093V659H1155V597Z" fill="white"/>
<path d="M1155 659H1093V721H1155V659Z" fill="white"/>
<path d="M1155 783H1093V845H1155V783Z" fill="white"/>
<path d="M1155 1341H1093V1403H1155V1341Z" fill="white"/>
<path d="M1155 1465H1093V1527H1155V1465Z" fill="white"/>
<path d="M1155 1527H1093V1589H1155V1527Z" fill="white"/>
<path d="M1155 1651H1093V1713H1155V1651Z" fill="white"/>
<path d="M1155 1837H1093V1899H1155V1837Z" fill="white"/>
<path d="M1217 535H1155V597H1217V535Z" fill="white"/>
<path d="M1217 659H1155V721H1217V659Z" fill="white"/>
<path d="M1217 721H1155V783H1217V721Z" fill="white"/>
<path d="M1217 969H1155V1031H1217V969Z" fill="white"/>
<path d="M1217 1031H1155V1093H1217V1031Z" fill="white"/>
<path d="M1217 1279H1155V1341H1217V1279Z" fill="white"/>
<path d="M1217 1341H1155V1403H1217V1341Z" fill="white"/>
<path d="M1217 1465H1155V1527H1217V1465Z" fill="white"/>
<path d="M1217 1651H1155V1713H1217V1651Z" fill="white"/>
<path d="M1217 1775H1155V1837H1217V1775Z" fill="white"/>
<path d="M1217 1837H1155V1899H1217V1837Z" fill="white"/>
<path d="M1279 101H1217V163H1279V101Z" fill="white"/>
<path d="M1279 225H1217V287H1279V225Z" fill="white"/>
<path d="M1279 287H1217V349H1279V287Z" fill="white"/>
<path d="M1279 349H1217V411H1279V349Z" fill="white"/>
<path d="M1279 473H1217V535H1279V473Z" fill="white"/>
<path d="M1279 535H1217V597H1279V535Z" fill="white"/>
<path d="M1279 783H1217V845H1279V783Z" fill="white"/>
<path d="M1279 845H1217V907H1279V845Z" fill="white"/>
<path d="M1279 907H1217V969H1279V907Z" fill="white"/>
<path d="M1279 1155H1217V1217H1279V1155Z" fill="white"/>
<path d="M1279 1341H1217V1403H1279V1341Z" fill="white"/>
<path d="M1279 1403H1217V1465H1279V1403Z" fill="white"/>
<path d="M1279 1775H1217V1837H1279V1775Z" fill="white"/>
<path d="M1279 1837H1217V1899H1279V1837Z" fill="white"/>
<path d="M1341 163H1279V225H1341V163Z" fill="white"/>
<path d="M1341 597H1279V659H1341V597Z" fill="white"/>
<path d="M1341 783H1279V845H1341V783Z" fill="white"/>
<path d="M1341 845H1279V907H1341V845Z" fill="white"/>
<path d="M1341 969H1279V1031H1341V969Z" fill="white"/>
<path d="M1341 1031H1279V1093H1341V1031Z" fill="white"/>
<path d="M1341 1155H1279V1217H1341V1155Z" fill="white"/>
<path d="M1341 1279H1279V1341H1341V1279Z" fill="white"/>
<path d="M1341 1465H1279V1527H1341V1465Z" fill="white"/>
<path d="M1341 1589H1279V1651H1341V1589Z" fill="white"/>
<path d="M1341 1651H1279V1713H1341V1651Z" fill="white"/>
<path d="M1341 1775H1279V1837H1341V1775Z" fill="white"/>
<path d="M1341 1837H1279V1899H1341V1837Z" fill="white"/>
<path d="M1403 101H1341V163H1403V101Z" fill="white"/>
<path d="M1403 473H1341V535H1403V473Z" fill="white"/>
<path d="M1403 535H1341V597H1403V535Z" fill="white"/>
<path d="M1403 597H1341V659H1403V597Z" fill="white"/>
<path d="M1403 721H1341V783H1403V721Z" fill="white"/>
<path d="M1403 845H1341V907H1403V845Z" fill="white"/>
<path d="M1403 1093H1341V1155H1403V1093Z" fill="white"/>
<path d="M1403 1155H1341V1217H1403V1155Z" fill="white"/>
<path d="M1403 1279H1341V1341H1403V1279Z" fill="white"/>
<path d="M1403 1341H1341V1403H1403V1341Z" fill="white"/>
<path d="M1403 1403H1341V1465H1403V1403Z" fill="white"/>
<path d="M1403 1465H1341V1527H1403V1465Z" fill="white"/>
<path d="M1403 1527H1341V1589H1403V1527Z" fill="white"/>
<path d="M1403 1589H1341V1651H1403V1589Z" fill="white"/>
<path d="M1403 1651H1341V1713H1403V1651Z" fill="white"/>
<path d="M1465 597H1403V659H1465V597Z" fill="white"/>
<path d="M1465 845H1403V907H1465V845Z" fill="white"/>
<path d="M1465 907H1403V969H1465V907Z" fill="white"/>
<path d="M1465 969H1403V1031H1465V969Z" fill="white"/>
<path d="M1465 1155H1403V1217H1465V1155Z" fill="white"/>
<path d="M1465 1341H1403V1403H1465V1341Z" fill="white"/>
<path d="M1465 1589H1403V1651H1465V1589Z" fill="white"/>
<path d="M1465 1837H1403V1899H1465V1837Z" fill="white"/>
<path d="M1527 597H1465V659H1527V597Z" fill="white"/>
<path d="M1527 659H1465V721H1527V659Z" fill="white"/>
<path d="M1527 721H1465V783H1527V721Z" fill="white"/>
<path d="M1527 1217H1465V1279H1527V1217Z" fill="white"/>
<path d="M1527 1279H1465V1341H1527V1279Z" fill="white"/>
<path d="M1527 1341H1465V1403H1527V1341Z" fill="white"/>
<path d="M1527 1465H1465V1527H1527V1465Z" fill="white"/>
<path d="M1527 1589H1465V1651H1527V1589Z" fill="white"/>
<path d="M1527 1713H1465V1775H1527V1713Z" fill="white"/>
<path d="M1527 1837H1465V1899H1527V1837Z" fill="white"/>
<path d="M1589 721H1527V783H1589V721Z" fill="white"/>
<path d="M1589 1093H1527V1155H1589V1093Z" fill="white"/>
<path d="M1589 1155H1527V1217H1589V1155Z" fill="white"/>
<path d="M1589 1217H1527V1279H1589V1217Z" fill="white"/>
<path d="M1589 1341H1527V1403H1589V1341Z" fill="white"/>
<path d="M1589 1589H1527V1651H1589V1589Z" fill="white"/>
<path d="M1589 1837H1527V1899H1589V1837Z" fill="white"/>
<path d="M1651 597H1589V659H1651V597Z" fill="white"/>
<path d="M1651 659H1589V721H1651V659Z" fill="white"/>
<path d="M1651 721H1589V783H1651V721Z" fill="white"/>
<path d="M1651 783H1589V845H1651V783Z" fill="white"/>
<path d="M1651 845H1589V907H1651V845Z" fill="white"/>
<path d="M1651 1031H1589V1093H1651V1031Z" fill="white"/>
<path d="M1651 1093H1589V1155H1651V1093Z" fill="white"/>
<path d="M1651 1217H1589V1279H1651V1217Z" fill="white"/>
<path d="M1651 1341H1589V1403H1651V1341Z" fill="white"/>
<path d="M1651 1403H1589V1465H1651V1403Z" fill="white"/>
<path d="M1651 1465H1589V1527H1651V1465Z" fill="white"/>
<path d="M1651 1527H1589V1589H1651V1527Z" fill="white"/>
<path d="M1651 1589H1589V1651H1651V1589Z" fill="white"/>
<path d="M1651 1651H1589V1713H1651V1651Z" fill="white"/>
<path d="M1651 1775H1589V1837H1651V1775Z" fill="white"/>
<path d="M1713 659H1651V721H1713V659Z" fill="white"/>
<path d="M1713 721H1651V783H1713V721Z" fill="white"/>
<path d="M1713 1031H1651V1093H1713V1031Z" fill="white"/>
<path d="M1713 1093H1651V1155H1713V1093Z" fill="white"/>
<path d="M1713 1217H1651V1279H1713V1217Z" fill="white"/>
<path d="M1713 1341H1651V1403H1713V1341Z" fill="white"/>
<path d="M1713 1403H1651V1465H1713V1403Z" fill="white"/>
<path d="M1713 1589H1651V1651H1713V1589Z" fill="white"/>
<path d="M1713 1651H1651V1713H1713V1651Z" fill="white"/>
<path d="M1775 597H1713V659H1775V597Z" fill="white"/>
<path d="M1775 659H1713V721H1775V659Z" fill="white"/>
<path d="M1775 907H1713V969H1775V907Z" fill="white"/>
<path d="M1775 1031H1713V1093H1775V1031Z" fill="white"/>
<path d="M1775 1093H1713V1155H1775V1093Z" fill="white"/>
<path d="M1775 1217H1713V1279H1775V1217Z" fill="white"/>
<path d="M1775 1279H1713V1341H1775V1279Z" fill="white"/>
<path d="M1775 1527H1713V1589H1775V1527Z" fill="white"/>
<path d="M1775 1589H1713V1651H1775V1589Z" fill="white"/>
<path d="M1775 1651H1713V1713H1775V1651Z" fill="white"/>
<path d="M1775 1837H1713V1899H1775V1837Z" fill="white"/>
<path d="M1837 597H1775V659H1837V597Z" fill="white"/>
<path d="M1837 659H1775V721H1837V659Z" fill="white"/>
<path d="M1837 721H1775V783H1837V721Z" fill="white"/>
<path d="M1837 783H1775V845H1837V783Z" fill="white"/>
<path d="M1837 845H1775V907H1837V845Z" fill="white"/>
<path d="M1837 907H1775V969H1837V907Z" fill="white"/>
<path d="M1837 969H1775V1031H1837V969Z" fill="white"/>
<path d="M1837 1093H1775V1155H1837V1093Z" fill="white"/>
<path d="M1837 1155H1775V1217H1837V1155Z" fill="white"/>
<path d="M1837 1217H1775V1279H1837V1217Z" fill="white"/>
<path d="M1837 1403H1775V1465H1837V1403Z" fill="white"/>
<path d="M1837 1527H1775V1589H1837V1527Z" fill="white"/>
<path d="M1837 1775H1775V1837H1837V1775Z" fill="white"/>
<path d="M1899 659H1837V721H1899V659Z" fill="white"/>
<path d="M1899 721H1837V783H1899V721Z" fill="white"/>
<path d="M1899 907H1837V969H1899V907Z" fill="white"/>
<path d="M1899 969H1837V1031H1899V969Z" fill="white"/>
<path d="M1899 1031H1837V1093H1899V1031Z" fill="white"/>
<path d="M1899 1093H1837V1155H1899V1093Z" fill="white"/>
<path d="M1899 1155H1837V1217H1899V1155Z" fill="white"/>
<path d="M1899 1279H1837V1341H1899V1279Z" fill="white"/>
<path d="M1899 1341H1837V1403H1899V1341Z" fill="white"/>
<path d="M1899 1589H1837V1651H1899V1589Z" fill="white"/>
<path d="M1899 1713H1837V1775H1899V1713Z" fill="white"/>
<path d="M1899 1775H1837V1837H1899V1775Z" fill="white"/>
<path d="M1899 1837H1837V1899H1899V1837Z" fill="white"/>
</mask>
<g mask="url(#mask0_2752_111)">
<path d="M1899 101H101V1899H1899V101Z" fill="black"/>
</g>
<mask id="mask1_2752_111" style="mask-type:luminance" maskUnits="userSpaceOnUse" x="101" y="101" width="434" height="434">
<path d="M163 101H101V163H163V101Z" fill="white"/>
<path d="M163 163H101V225H163V163Z" fill="white"/>
<path d="M163 225H101V287H163V225Z" fill="white"/>
<path d="M163 287H101V349H163V287Z" fill="white"/>
<path d="M163 349H101V411H163V349Z" fill="white"/>
<path d="M163 411H101V473H163V411Z" fill="white"/>
<path d="M163 473H101V535H163V473Z" fill="white"/>
<path d="M225 101H163V163H225V101Z" fill="white"/>
<path d="M225 473H163V535H225V473Z" fill="white"/>
<path d="M287 101H225V163H287V101Z" fill="white"/>
<path d="M287 473H225V535H287V473Z" fill="white"/>
<path d="M349 101H287V163H349V101Z" fill="white"/>
<path d="M349 473H287V535H349V473Z" fill="white"/>
<path d="M411 101H349V163H411V101Z" fill="white"/>
<path d="M411 473H349V535H411V473Z" fill="white"/>
<path d="M473 101H411V163H473V101Z" fill="white"/>
<path d="M473 473H411V535H473V473Z" fill="white"/>
<path d="M535 101H473V163H535V101Z" fill="white"/>
<path d="M535 163H473V225H535V163Z" fill="white"/>
<path d="M535 225H473V287H535V225Z" fill="white"/>
<path d="M535 287H473V349H535V287Z" fill="white"/>
<path d="M535 349H473V411H535V349Z" fill="white"/>
<path d="M535 411H473V473H535V411Z" fill="white"/>
<path d="M535 473H473V535H535V473Z" fill="white"/>
</mask>
<g mask="url(#mask1_2752_111)">
<path d="M535 101H101V535H535V101Z" fill="black"/>
</g>
<mask id="mask2_2752_111" style="mask-type:luminance" maskUnits="userSpaceOnUse" x="225" y="225" width="186" height="186">
<path d="M287 225H225V287H287V225Z" fill="white"/>
<path d="M287 287H225V349H287V287Z" fill="white"/>
<path d="M287 349H225V411H287V349Z" fill="white"/>
<path d="M349 225H287V287H349V225Z" fill="white"/>
<path d="M349 287H287V349H349V287Z" fill="white"/>
<path d="M349 349H287V411H349V349Z" fill="white"/>
<path d="M411 225H349V287H411V225Z" fill="white"/>
<path d="M411 287H349V349H411V287Z" fill="white"/>
<path d="M411 349H349V411H411V349Z" fill="white"/>
</mask>
<g mask="url(#mask2_2752_111)">
<path d="M411 225H225V411H411V225Z" fill="black"/>
</g>
<mask id="mask3_2752_111" style="mask-type:luminance" maskUnits="userSpaceOnUse" x="1465" y="101" width="434" height="434">
<path d="M1527 101H1465V163H1527V101Z" fill="white"/>
<path d="M1527 163H1465V225H1527V163Z" fill="white"/>
<path d="M1527 225H1465V287H1527V225Z" fill="white"/>
<path d="M1527 287H1465V349H1527V287Z" fill="white"/>
<path d="M1527 349H1465V411H1527V349Z" fill="white"/>
<path d="M1527 411H1465V473H1527V411Z" fill="white"/>
<path d="M1527 473H1465V535H1527V473Z" fill="white"/>
<path d="M1589 101H1527V163H1589V101Z" fill="white"/>
<path d="M1589 473H1527V535H1589V473Z" fill="white"/>
<path d="M1651 101H1589V163H1651V101Z" fill="white"/>
<path d="M1651 473H1589V535H1651V473Z" fill="white"/>
<path d="M1713 101H1651V163H1713V101Z" fill="white"/>
<path d="M1713 473H1651V535H1713V473Z" fill="white"/>
<path d="M1775 101H1713V163H1775V101Z" fill="white"/>
<path d="M1775 473H1713V535H1775V473Z" fill="white"/>
<path d="M1837 101H1775V163H1837V101Z" fill="white"/>
<path d="M1837 473H1775V535H1837V473Z" fill="white"/>
<path d="M1899 101H1837V163H1899V101Z" fill="white"/>
<path d="M1899 163H1837V225H1899V163Z" fill="white"/>
<path d="M1899 225H1837V287H1899V225Z" fill="white"/>
<path d="M1899 287H1837V349H1899V287Z" fill="white"/>
<path d="M1899 349H1837V411H1899V349Z" fill="white"/>
<path d="M1899 411H1837V473H1899V411Z" fill="white"/>
<path d="M1899 473H1837V535H1899V473Z" fill="white"/>
</mask>
<g mask="url(#mask3_2752_111)">
<path d="M1899 101H1465V535H1899V101Z" fill="black"/>
</g>
<mask id="mask4_2752_111" style="mask-type:luminance" maskUnits="userSpaceOnUse" x="1589" y="225" width="186" height="186">
<path d="M1651 225H1589V287H1651V225Z" fill="white"/>
<path d="M1651 287H1589V349H1651V287Z" fill="white"/>
<path d="M1651 349H1589V411H1651V349Z" fill="white"/>
<path d="M1713 225H1651V287H1713V225Z" fill="white"/>
<path d="M1713 287H1651V349H1713V287Z" fill="white"/>
<path d="M1713 349H1651V411H1713V349Z" fill="white"/>
<path d="M1775 225H1713V287H1775V225Z" fill="white"/>
<path d="M1775 287H1713V349H1775V287Z" fill="white"/>
<path d="M1775 349H1713V411H1775V349Z" fill="white"/>
</mask>
<g mask="url(#mask4_2752_111)">
<path d="M1775 225H1589V411H1775V225Z" fill="black"/>
</g>
<mask id="mask5_2752_111" style="mask-type:luminance" maskUnits="userSpaceOnUse" x="101" y="1465" width="434" height="434">
<path d="M163 1465H101V1527H163V1465Z" fill="white"/>
<path d="M163 1527H101V1589H163V1527Z" fill="white"/>
<path d="M163 1589H101V1651H163V1589Z" fill="white"/>
<path d="M163 1651H101V1713H163V1651Z" fill="white"/>
<path d="M163 1713H101V1775H163V1713Z" fill="white"/>
<path d="M163 1775H101V1837H163V1775Z" fill="white"/>
<path d="M163 1837H101V1899H163V1837Z" fill="white"/>
<path d="M225 1465H163V1527H225V1465Z" fill="white"/>
<path d="M225 1837H163V1899H225V1837Z" fill="white"/>
<path d="M287 1465H225V1527H287V1465Z" fill="white"/>
<path d="M287 1837H225V1899H287V1837Z" fill="white"/>
<path d="M349 1465H287V1527H349V1465Z" fill="white"/>
<path d="M349 1837H287V1899H349V1837Z" fill="white"/>
<path d="M411 1465H349V1527H411V1465Z" fill="white"/>
<path d="M411 1837H349V1899H411V1837Z" fill="white"/>
<path d="M473 1465H411V1527H473V1465Z" fill="white"/>
<path d="M473 1837H411V1899H473V1837Z" fill="white"/>
<path d="M535 1465H473V1527H535V1465Z" fill="white"/>
<path d="M535 1527H473V1589H535V1527Z" fill="white"/>
<path d="M535 1589H473V1651H535V1589Z" fill="white"/>
<path d="M535 1651H473V1713H535V1651Z" fill="white"/>
<path d="M535 1713H473V1775H535V1713Z" fill="white"/>
<path d="M535 1775H473V1837H535V1775Z" fill="white"/>
<path d="M535 1837H473V1899H535V1837Z" fill="white"/>
</mask>
<g mask="url(#mask5_2752_111)">
<path d="M535 1465H101V1899H535V1465Z" fill="black"/>
</g>
<mask id="mask6_2752_111" style="mask-type:luminance" maskUnits="userSpaceOnUse" x="225" y="1589" width="186" height="186">
<path d="M287 1589H225V1651H287V1589Z" fill="white"/>
<path d="M287 1651H225V1713H287V1651Z" fill="white"/>
<path d="M287 1713H225V1775H287V1713Z" fill="white"/>
<path d="M349 1589H287V1651H349V1589Z" fill="white"/>
<path d="M349 1651H287V1713H349V1651Z" fill="white"/>
<path d="M349 1713H287V1775H349V1713Z" fill="white"/>
<path d="M411 1589H349V1651H411V1589Z" fill="white"/>
<path d="M411 1651H349V1713H411V1651Z" fill="white"/>
<path d="M411 1713H349V1775H411V1713Z" fill="white"/>
</mask>
<g mask="url(#mask6_2752_111)">
<path d="M411 1589H225V1775H411V1589Z" fill="black"/>
</g>
</g>
<defs>
<clipPath id="clip0_2752_111">
<rect width="2000" height="2000" fill="white"/>
</clipPath>
</defs>
</svg>
