<svg width="225" height="223" viewBox="0 0 225 223" fill="#000" xmlns="http://www.w3.org/2000/svg">
<path d="M111.293 0.0339496C112.468 0.0227872 113.643 0.0116248 114.854 0.000124144C129.542 -0.0221705 142.036 2.95793 155.204 9.31992C156.346 9.85171 157.489 10.3834 158.632 10.9151C187.553 24.6055 207.998 48.5779 218.992 78.5944C219.939 81.4425 220.798 84.308 221.612 87.1968C221.797 87.8539 221.982 88.511 222.173 89.188C229.432 116.548 221.942 144.711 208.466 168.794C193.628 194.057 168.491 211.208 140.624 218.966C112.056 226.122 81.1338 221.625 55.8772 206.661C50.7414 203.5 45.8808 200.1 41.2971 196.179C40.5606 195.553 39.8241 194.926 39.0652 194.281C17.0018 174.983 2.27868 147.083 0.146916 117.626C-1.63692 86.6937 13.0235 56.0144 33.2397 33.1726C46.9079 18.1484 62.9213 8.85981 82.2466 3.05332C82.8601 2.86803 83.4735 2.68275 84.1056 2.49186C93.0543 -0.0472562 102.045 0.0385312 111.293 0.0339496Z" fill="#A7E4AB"/>
<path d="M160.329 66.6778C163.268 68.4747 164.801 70.4354 166.754 73.2744C167.146 73.8356 167.539 74.3967 167.944 74.9749C169.171 78.7673 169.362 82.2857 167.806 85.9539C163.819 92.6783 158.361 98.4068 152.239 103.204C151.117 104.55 151.117 104.55 149.971 105.924C147.703 108.645 147.703 108.645 145.549 110.346C143.476 112.024 141.981 113.593 140.276 115.617C137.1 119.349 133.571 122.523 129.862 125.718C127.715 127.613 127.715 127.613 126.112 129.806C123.896 132.494 121.458 134.603 118.818 136.863C115.535 139.733 112.461 142.806 109.376 145.887C108.747 146.505 108.118 147.122 107.47 147.759C104.764 150.457 102.313 152.949 100.376 156.256C99.8283 157.006 99.281 157.755 98.7172 158.527C96.5062 158.868 96.5062 158.868 94.1814 158.527C92.7934 157.187 92.7934 157.187 91.613 155.339C88.7268 151.153 85.4023 147.764 81.7542 144.239C80.4198 142.928 79.0856 141.617 77.7517 140.305C75.6709 138.27 73.5872 136.238 71.4989 134.21C69.4663 132.233 67.4453 130.244 65.4254 128.254C64.8017 127.655 64.178 127.056 63.5354 126.439C59.9006 122.843 57.6447 119.891 56.0811 114.994C56.0811 107.894 58.8289 103.177 63.7918 98.2154C68.7715 96.0817 73.4358 96.0114 78.7598 96.855C81.7214 98.1849 83.7393 100.01 86.0171 102.297C87.1169 103.344 87.1169 103.344 88.2389 104.412C93.9147 109.926 93.9147 109.926 95.0886 112.273C98.3696 111.766 99.64 110.674 101.722 108.135C102.272 107.48 102.821 106.826 103.388 106.151C104.219 105.141 104.219 105.141 105.067 104.111C108.75 99.7126 112.509 95.8272 116.889 92.1218C118.707 90.4766 120.266 88.7495 121.85 86.8786C124.446 83.8136 127.24 81.2896 130.312 78.7125C132.695 76.5225 134.754 74.1316 136.874 71.6873C143.8 63.9688 150.686 62.046 160.329 66.6778Z" fill="#fff"/>
</svg>
