<svg width="120" height="120" viewBox="0 0 120 120" fill="none" xmlns="http://www.w3.org/2000/svg">
<path d="M18.915 14.13L60 5L101.085 14.13C102.195 14.3768 103.188 14.9948 103.9 15.882C104.612 16.7692 105 17.8726 105 19.01V68.945C105 73.8837 103.78 78.7459 101.449 83.1001C99.1188 87.4542 95.7493 91.1657 91.64 93.905L60 115L28.36 93.905C24.2514 91.1662 20.8823 87.4555 18.5517 83.1023C16.2212 78.749 15.0012 73.8878 15 68.95V19.01C15.0002 17.8726 15.3882 16.7692 16.0999 15.882C16.8117 14.9948 17.8047 14.3768 18.915 14.13ZM25 23.02V68.945C25.0001 72.2373 25.8129 75.4787 27.3663 78.3814C28.9197 81.2842 31.1658 83.7586 33.905 85.585L60 102.985L86.095 85.585C88.8335 83.7591 91.0791 81.2855 92.6325 78.3836C94.1859 75.4818 94.9991 72.2415 95 68.95V23.02L60 15.25L25 23.02Z" fill="#DDFBE0"/>
<path d="M60 79C46.1925 79 35 67.8075 35 54C35 40.1925 46.1925 29 60 29C73.8075 29 85 40.1925 85 54C85 67.8075 73.8075 79 60 79ZM57.5075 64L75.1825 46.3225L71.6475 42.7875L57.5075 56.93L50.435 49.8575L46.9 53.3925L57.5075 64Z" fill="#F0FDF1"/>
</svg>
