<svg width="497" height="497" viewBox="-10 -10 517 517" fill="none" xmlns="http://www.w3.org/2000/svg">
    <defs>
        <linearGradient id="circleGradient" x1="0%" y1="0%" x2="0%" y2="100%">
            <stop offset="50%" stop-color="#E6C9ED" />
            <stop offset="100%" stop-color="#837287" />
        </linearGradient>
    </defs>
    <circle cx="248.5" cy="248.5" r="248.5" fill="url(#circleGradient)" stroke="white" stroke-width="10"/>
    <path d="M335.966 249.342L293.567 322.629H204.556L162.157 249.342L204.556 175.775H293.567L335.966 249.342ZM315.749 109.508H182.654C172.546 109.508 163.28 114.843 158.226 123.548L93.6437 235.303C88.5895 244.007 88.5895 254.677 93.6437 263.382L158.226 375.137C163.28 383.841 172.546 389.176 182.654 389.176H315.749C325.858 389.176 335.124 383.841 340.178 375.137L404.76 263.382C409.814 254.677 409.814 244.007 404.76 235.303L339.897 123.548C334.843 114.843 325.577 109.508 315.749 109.508Z" fill="#10352B"/>
</svg>
