<svg width="811" height="716" viewBox="0 0 811 716" fill="none" xmlns="http://www.w3.org/2000/svg">
<path d="M469.781 71.0957C472.645 73.5641 473.918 76.8136 475.031 80.3301C477.964 88.4383 485.778 94.8797 492.814 99.4405C497.279 101.075 503.471 100.525 508.078 99.502C510.289 98.6967 510.289 98.6967 511.172 96.5957C511.327 95.9925 511.481 95.3892 511.641 94.7676C511.888 94.5201 512.136 94.2726 512.391 94.0176C513.062 88.6445 512.414 84.8869 509.461 80.3506C508.641 79.0176 508.641 79.0176 508.641 77.5176C509.591 77.4267 510.541 77.3359 511.521 77.2422C512.795 77.1155 514.069 76.9885 515.344 76.8614C515.967 76.8024 516.59 76.7434 517.232 76.6827C520.923 76.3093 524.467 75.724 528.078 74.8754C538.338 72.5264 550.193 71.5509 560.391 74.5176C559.985 77.4369 559.174 78.9641 557.391 81.2676C556.862 82.8781 556.862 82.8781 556.641 84.2676C559.146 82.1011 560.557 80.4798 561.656 77.3301C562.641 74.5176 562.641 74.5176 564.141 73.7676C565.456 73.8161 566.769 73.9193 568.078 74.0489C570.643 74.3004 573.178 74.5189 575.754 74.6055C581.153 74.8095 585.284 75.6592 590.186 77.9131C593.13 79.2379 596.117 80.3671 599.156 81.4551C599.989 81.7536 599.989 81.7536 600.839 82.0581C603.535 82.9907 605.937 83.7217 608.813 83.7989C612.766 83.9973 616.045 86.1013 619.473 87.9039C623.614 90.0648 627.733 91.6521 632.156 93.1651C639.543 95.6997 647.808 98.539 652.641 105.033C654.342 107.001 655.332 107.293 657.75 108.127C661.422 109.461 663 111.097 665.367 114.118C667.228 116.133 669.345 117.56 671.625 119.049C676.975 122.567 681.279 126.85 685.567 131.597C687.105 133.128 687.105 133.128 689.235 133.981C692.506 135.73 694.645 138.124 697.125 140.846C697.62 141.381 698.114 141.916 698.624 142.468C702.072 146.247 705.229 150.13 708.214 154.287C709.489 156.057 710.83 157.727 712.219 159.408C715.068 163.028 717.273 166.996 719.559 170.982C721.815 174.884 724.269 178.521 727.049 182.075C728.791 184.596 730.069 187.259 731.391 190.018C731.836 190.922 732.284 191.825 732.732 192.728C732.955 193.177 733.178 193.626 733.407 194.088C733.639 194.555 733.871 195.021 734.109 195.502C734.359 196.006 734.609 196.51 734.867 197.03C736.332 199.963 737.837 202.868 739.395 205.753C739.731 206.38 740.068 207.006 740.415 207.652C741.07 208.865 741.73 210.075 742.396 211.282C743.862 214.003 745.041 216.493 745.726 219.517C746.349 222.094 746.766 223.144 748.5 225.033C752.712 230.262 754.425 237.008 756.229 243.382C756.763 245.107 757.345 246.782 757.975 248.474C760.159 254.363 761.767 259.755 762.519 266.031C762.788 268.192 762.788 268.192 764.438 270.314C766.366 273.238 766.255 275.609 766.439 279.051C766.976 285.604 768.556 293.574 771.911 299.342C772.81 301.405 772.844 303.007 772.872 305.254C772.891 306.07 772.91 306.886 772.929 307.727C772.956 309.436 772.979 311.145 773 312.854C773.108 317.346 773.431 320.283 775.641 324.268C775.808 326.846 775.808 326.846 775.688 329.518C775.521 333.251 775.521 333.251 776.367 336.844C777.219 339.514 777.439 341.832 777.586 344.629C777.614 345.145 777.642 345.661 777.67 346.192C778.035 353.419 778.156 360.655 778.305 367.888C778.451 374.834 778.691 381.733 779.237 388.662C779.471 392.247 779.444 395.818 779.391 399.408C779.372 400.763 779.356 402.117 779.344 403.472C779.335 404.053 779.326 404.634 779.317 405.233C779.329 406.92 779.329 406.92 780.141 409.018C780.177 410.538 780.168 412.059 780.135 413.579C780.121 414.503 780.107 415.426 780.092 416.377C780.084 416.866 780.076 417.356 780.068 417.86C779.933 427.443 780.588 436.616 782.102 446.087C782.589 449.345 782.922 452.614 783.234 455.893C783.297 456.533 783.359 457.173 783.424 457.832C783.736 461.268 783.936 464.684 784.017 468.133C784.132 477.745 784.132 477.745 787.491 486.631C788.935 489.659 789.135 492.821 789.542 496.123C789.795 498.369 789.795 498.369 791.063 500.565C792.248 502.988 792.305 504.502 792.422 507.174C792.651 511.056 793.441 513.035 795.694 516.121C797.315 518.942 797.691 522.082 798.325 525.244C798.83 527.272 799.326 528.495 800.484 530.19C802.24 533.408 802.201 535.976 802.389 539.585C802.693 542.221 803.545 543.903 804.858 546.165C806.169 548.849 806.67 551.734 807.284 554.644C807.901 557.153 807.901 557.153 810.141 560.518C810.141 611.75 810.141 662.983 810.141 715.768C570.561 715.768 330.981 715.768 84.1406 715.768C79.3217 706.13 79.3217 706.13 77.9707 700.607C77.1139 697.521 75.8538 694.644 74.584 691.709C73.7046 689.666 72.8925 687.609 72.0938 685.533C71.2162 683.292 70.3453 681.549 69.0469 679.486C67.266 676.546 67.0315 673.464 66.5625 670.106C66.0283 667.145 65.0387 664.51 63.8906 661.738C63.0517 659.254 62.5695 656.805 62.0793 654.232C61.201 649.798 60.1395 645.403 59.1094 641.002C58.9929 640.502 58.8764 640.002 58.7564 639.487C57.4878 634.047 56.1922 628.621 54.7031 623.236C52.6796 615.785 51.3707 608.349 50.4668 600.69C50.3444 599.679 50.2218 598.668 50.0991 597.657C49.8555 595.646 49.6337 593.636 49.4224 591.62C48.6526 585.148 48.6526 585.148 45.3135 579.745C43.4877 577.317 42.8883 574.332 42.0938 571.44C41.9049 570.786 41.716 570.132 41.5214 569.458C40.6314 566.339 39.8014 563.209 39.0439 560.055C38.9159 559.522 38.7879 558.988 38.6559 558.439C38.3195 557.005 37.9999 555.566 37.6816 554.128C36.951 551.717 35.9685 549.874 34.6699 547.733C32.8001 544.217 31.8514 540.246 30.6899 536.453C28.869 530.72 26.3188 525.813 22.9219 520.861C21.0309 517.907 20.3177 514.944 19.5029 511.56C18.8875 509.507 18.0855 507.963 16.9688 506.143C15.112 503.057 14.5551 500.308 14.2031 496.744C13.5237 494.055 12.2982 492.019 10.9135 489.631C8.80489 485.79 7.26707 481.671 5.62061 477.616C4.13466 474.045 2.67504 471.235 0.140625 468.268C-0.046875 466.158 -0.046875 466.158 0.140625 464.518C3.44664 463.708 4.88845 463.489 7.92188 465.174C8.3579 465.46 8.79393 465.746 9.24317 466.041C10.8532 466.878 11.9775 466.971 13.7813 467.049C16.8311 467.259 18.8411 468.16 21.5156 469.627C27.1194 472.627 32.9622 473.774 39.1406 475.018C39.8841 475.167 40.6276 475.317 41.3936 475.472C41.8876 475.569 42.3816 475.667 42.8906 475.768C42.8634 469.212 40.911 463.874 38.3478 457.939C37.5561 456.068 36.8061 454.183 36.0615 452.292C35.7948 451.615 35.528 450.937 35.2531 450.24C34.7274 448.903 34.2023 447.565 33.678 446.228C33.435 445.616 33.1919 445.004 32.9414 444.373C32.7265 443.828 32.5117 443.283 32.2903 442.721C31.604 441.077 31.604 441.077 30.1406 439.018C30.4219 437.002 30.4219 437.002 30.8906 435.268C32.7534 435.272 34.6072 435.308 36.4688 435.361C36.9845 435.359 37.5003 435.358 38.0317 435.356C42.2219 435.511 44.5174 436.94 47.868 439.368C50.8671 441.313 54.1594 442.221 57.5625 443.236C61.424 444.417 65.147 445.56 68.7393 447.426C71.23 448.937 71.23 448.937 73.6406 448.768C73.5169 447.809 73.3931 446.85 73.2656 445.861C72.9914 443.276 72.8772 440.755 72.9463 438.159C73.1549 430.297 72.2181 424.082 69.8906 416.518C69.4188 414.726 68.9646 412.929 68.5313 411.127C68.3408 410.358 68.1503 409.59 67.9541 408.798C67.6448 406.795 67.6861 405.648 68.3906 403.768C69.1406 403.018 69.1406 403.018 71.1094 402.596C74.5573 403.17 75.3532 404.82 77.4697 407.462C79.323 409.491 81.2799 410.443 83.707 411.669C86.5701 413.296 89.094 415.33 91.6732 417.363C94.3585 419.479 97.0915 421.49 99.8906 423.455C103.656 426.171 106.125 428.87 108.703 432.736C110.396 434.523 111.132 434.898 113.344 435.736C118.212 437.695 121.853 441.288 125.718 444.74C126.914 445.788 128.141 446.787 129.378 447.786C131.391 449.518 131.391 449.518 132.328 451.393C133.815 453.517 134.748 453.926 137.063 455.002C142.093 457.351 147.697 460.502 150.094 465.736C152.132 469.071 154.513 469.965 157.945 471.672C159.891 472.768 159.891 472.768 161.719 474.971C163.741 477.388 165.299 478.278 168.047 479.752C171.941 481.907 174.162 484.056 176.716 487.65C178.877 490.625 181.114 493.348 184.84 494.119C190.182 494.331 193.108 492.151 196.986 488.57C197.558 488.034 197.558 488.034 198.141 487.486C198.522 487.134 198.902 486.783 199.295 486.42C201.716 484.173 204.066 481.865 206.391 479.518C214.641 471.268 214.641 471.268 216.574 469.36C217.751 468.167 218.895 466.939 219.996 465.675C224.117 461.073 224.117 461.073 226.945 460.229C229.726 460.117 231.63 460.656 234.188 461.752C236.537 465.01 236.103 468.136 235.641 472.018C235.19 474.258 234.639 476.441 234.032 478.645C233.117 482.03 232.426 485.455 231.709 488.887C231.162 491.419 230.546 493.926 229.922 496.44C228.949 500.561 228.548 504.561 228.372 508.788C228.141 511.018 228.141 511.018 227.388 513.133C226.633 515.543 226.455 517.391 226.458 519.905C226.456 520.751 226.454 521.597 226.451 522.468C226.457 523.371 226.462 524.273 226.468 525.203C226.468 526.139 226.468 527.074 226.469 528.038C226.472 530.515 226.481 532.992 226.494 535.469C226.502 537.49 226.502 539.511 226.501 541.533C226.502 543.949 226.508 546.365 226.515 548.781C226.516 550.14 226.516 550.14 226.517 551.525C226.524 552.787 226.524 552.787 226.532 554.074C226.535 554.813 226.537 555.553 226.54 556.314C226.632 558.09 226.941 559.559 227.391 561.268C227.386 563.08 227.352 564.893 227.297 566.705C227.232 570.516 227.474 573.535 229.099 577.003C229.818 579.013 229.891 580.89 230.016 583.018C230.221 586.309 230.727 588.772 232.025 591.772C233.187 595.068 233.657 598.569 234.258 602.005C234.915 604.874 235.98 607.32 237.141 610.018C237.557 612.209 237.557 612.209 237.797 614.33C238.404 618.412 239.659 621.688 241.477 625.375C242.274 627.026 242.892 628.625 243.469 630.361C244.297 632.683 245.42 634.492 246.844 636.502C248.576 638.973 249.657 641.228 250.594 644.096C252.112 648.601 254.542 652.002 257.391 655.768C260.345 659.777 262.943 663.752 265.219 668.19C267.255 672.101 269.559 675.081 272.59 678.259C274.41 680.37 275.248 682.395 276.141 685.018C276.636 685.018 277.131 685.018 277.641 685.018C278.766 683.905 278.766 683.905 279.938 682.44C281.954 680.062 284.042 677.828 286.266 675.643C288.839 673.104 291.235 670.48 293.584 667.735C294.945 666.207 296.375 664.787 297.844 663.361C300.625 660.623 303.027 657.68 305.432 654.61C308.101 651.24 310.888 647.988 313.969 644.986C318.181 640.671 321.74 635.758 325.315 630.912C326.383 629.527 327.517 628.238 328.688 626.94C330.348 625.047 331.551 623.169 332.719 620.94C334.006 618.493 335.393 616.552 337.266 614.518C339.578 612.001 341.134 609.454 342.7 606.429C343.661 604.732 344.751 603.321 345.984 601.815C347.701 599.62 348.533 597.809 349.219 595.111C350.597 589.779 354.02 585.826 357.375 581.565C358.624 579.297 358.825 578.202 359.109 575.705C359.844 570.671 362.347 566.858 364.883 562.547C367.176 558.574 368.539 554.984 369.413 550.457C369.918 548.407 370.663 546.981 371.766 545.19C373.831 541.788 374.564 538.383 375.311 534.499C375.758 532.584 376.262 531 376.986 529.196C378.362 525.656 378.993 522.061 379.641 518.33C382.371 503.307 382.371 503.307 384.141 499.768C384.238 498.352 384.293 496.933 384.325 495.514C384.35 494.659 384.375 493.804 384.4 492.924C384.446 491.123 384.489 489.322 384.529 487.522C384.554 486.663 384.58 485.805 384.606 484.92C384.635 483.744 384.635 483.744 384.663 482.545C384.891 480.268 384.891 480.268 385.642 478.023C386.453 475.581 386.604 473.597 386.648 471.03C386.671 470.148 386.693 469.266 386.716 468.357C386.749 466.513 386.782 464.669 386.815 462.826C386.838 461.945 386.86 461.063 386.883 460.155C386.897 459.355 386.911 458.555 386.925 457.731C387.141 455.518 387.141 455.518 387.906 453.762C388.964 450.89 388.76 448.25 388.649 445.22C388.632 444.596 388.615 443.972 388.598 443.33C388.561 442.017 388.519 440.704 388.475 439.391C388.406 437.376 388.35 435.362 388.296 433.347C388.259 432.07 388.22 430.793 388.181 429.517C388.163 428.913 388.146 428.309 388.128 427.687C388.085 424.628 388.085 424.628 387.141 421.768C386.988 419.753 386.876 417.753 386.792 415.735C386.733 414.5 386.674 413.264 386.615 412.028C386.525 410.081 386.438 408.134 386.353 406.187C386.271 404.307 386.18 402.428 386.089 400.548C386.066 399.973 386.043 399.397 386.02 398.805C385.843 395.254 385.174 392.19 384.141 388.768C384.238 386.298 384.558 383.926 384.894 381.479C385.052 378.928 385.052 378.928 383.786 376.442C382.476 373.383 382.481 371.399 382.641 368.096C382.788 363.111 382.128 358.776 380.936 353.913C380.156 350.129 380.009 346.403 379.872 342.549C379.74 340.029 379.74 340.029 378.891 337.788C377.73 334.275 377.839 330.758 377.722 327.083C377.545 324.264 377.545 324.264 376.269 321.93C374.341 317.833 374.738 313.188 374.672 308.752C374.634 306.937 374.593 305.121 374.549 303.306C374.529 302.107 374.529 302.107 374.509 300.884C374.406 299.041 374.117 297.536 373.641 295.768C373.544 294.769 373.475 293.767 373.43 292.765C373.402 292.209 373.374 291.654 373.345 291.082C373.292 289.921 373.239 288.761 373.187 287.601C373.064 285.17 372.915 283.09 372.141 280.768C371.892 277.056 372.191 273.48 372.727 269.805C373.031 266.486 372.901 263.153 372.844 259.823C372.891 257.518 372.891 257.518 373.641 255.268C373.756 254.157 373.837 253.043 373.897 251.929C373.953 250.918 373.953 250.918 374.011 249.887C374.068 248.797 374.068 248.797 374.127 247.686C374.216 246.145 374.306 244.604 374.397 243.063C374.536 240.635 374.672 238.208 374.801 235.78C374.927 233.435 375.065 231.092 375.205 228.748C375.24 228.028 375.276 227.307 375.312 226.565C375.574 222.352 376.29 219.307 378.141 215.518C378.656 213.887 378.656 213.887 378.964 212.395C379.084 211.852 379.204 211.31 379.328 210.751C379.447 210.189 379.565 209.628 379.688 209.049C379.818 208.458 379.948 207.866 380.082 207.257C380.829 203.785 381.378 200.344 381.797 196.814C382.38 192.587 383.92 189.654 386.109 186.033C387.207 183.889 387.574 182.176 387.891 179.799C388.42 175.988 389.762 173.754 392.016 170.688C393.162 168.986 393.845 167.425 394.547 165.502C395.933 161.776 397.829 158.432 399.837 155.018C401.94 151.425 403.798 147.75 405.574 143.983C407.59 140.268 410.384 137.45 413.391 134.518C414.009 133.899 414.628 133.28 415.266 132.643C420.891 127.018 420.891 127.018 422.865 125.09C424.351 123.565 425.579 122.097 426.797 120.361C430.069 115.923 433.556 111.664 438.891 109.768C441.469 110.085 442.625 111.048 444.422 112.861C447.868 116.015 451.758 117.861 455.939 119.834C458.391 121.018 458.391 121.018 460.4 122.239C466.099 125.607 473.007 124.931 479.391 124.768C479.143 124.273 478.896 123.778 478.641 123.268C478.087 123.294 477.533 123.32 476.962 123.347C468.752 123.566 462.56 122.081 455.648 117.619C454.046 116.615 452.473 115.833 450.75 115.064C446.909 113.194 443.691 110.354 441.759 106.516C439.844 100.325 440.786 93.1233 443.391 87.2676C444.716 84.8653 446.236 82.7029 447.891 80.5176C448.259 79.9646 448.627 79.4116 449.007 78.8418C452.701 73.818 456.976 73.2746 462.891 72.2676C463.912 71.9578 464.929 71.6338 465.938 71.2832C468.141 70.7676 468.141 70.7676 469.781 71.0957Z" fill="#F2F4F3"/>
<path d="M469.781 71.0957C472.645 73.5641 473.918 76.8136 475.031 80.3301C477.964 88.4383 485.778 94.8797 492.814 99.4405C497.279 101.075 503.471 100.525 508.078 99.502C510.289 98.6967 510.289 98.6967 511.172 96.5957C511.327 95.9925 511.481 95.3892 511.641 94.7676C511.888 94.5201 512.136 94.2726 512.391 94.0176C513.062 88.6445 512.414 84.8869 509.461 80.3506C508.641 79.0176 508.641 79.0176 508.641 77.5176C509.591 77.4267 510.541 77.3359 511.521 77.2422C512.795 77.1155 514.069 76.9885 515.344 76.8614C515.967 76.8024 516.59 76.7434 517.232 76.6827C520.923 76.3093 524.467 75.724 528.078 74.8754C538.338 72.5264 550.193 71.5509 560.391 74.5176C559.985 77.4369 559.174 78.9641 557.391 81.2676C556.862 82.8781 556.862 82.8781 556.641 84.2676C559.146 82.1011 560.557 80.4798 561.656 77.3301C562.641 74.5176 562.641 74.5176 564.141 73.7676C565.456 73.8161 566.769 73.9193 568.078 74.0489C570.643 74.3004 573.178 74.5189 575.754 74.6055C581.153 74.8095 585.283 75.6592 590.186 77.9131C593.13 79.2379 596.117 80.3671 599.156 81.4551C599.989 81.7536 599.989 81.7536 600.839 82.0581C603.535 82.9907 605.937 83.7217 608.813 83.7989C612.766 83.9973 616.045 86.1013 619.473 87.9039C623.614 90.0648 627.733 91.6521 632.156 93.1651C639.543 95.6997 647.808 98.539 652.641 105.033C654.342 107.001 655.332 107.293 657.75 108.127C661.422 109.461 663 111.097 665.367 114.118C667.228 116.133 669.345 117.56 671.625 119.049C676.975 122.567 681.278 126.85 685.567 131.597C687.105 133.128 687.105 133.128 689.235 133.981C692.506 135.73 694.645 138.124 697.125 140.846C697.62 141.381 698.114 141.916 698.624 142.468C702.072 146.247 705.229 150.13 708.214 154.287C709.489 156.057 710.83 157.727 712.219 159.408C715.067 163.028 717.273 166.996 719.559 170.982C721.815 174.884 724.269 178.521 727.049 182.075C728.791 184.596 730.069 187.259 731.391 190.018C731.837 190.922 732.284 191.825 732.732 192.728C732.955 193.177 733.178 193.626 733.407 194.088C733.639 194.555 733.871 195.021 734.109 195.502C734.359 196.006 734.61 196.51 734.867 197.03C736.332 199.963 737.837 202.868 739.395 205.753C739.731 206.38 740.068 207.006 740.415 207.652C741.07 208.865 741.73 210.075 742.396 211.282C743.862 214.003 745.041 216.493 745.726 219.517C746.349 222.094 746.766 223.144 748.5 225.033C752.712 230.262 754.425 237.008 756.229 243.382C756.763 245.107 757.345 246.782 757.975 248.474C760.159 254.363 761.767 259.755 762.519 266.031C762.788 268.192 762.788 268.192 764.438 270.314C766.366 273.238 766.255 275.609 766.439 279.051C766.976 285.604 768.556 293.574 771.911 299.342C772.809 301.405 772.844 303.007 772.872 305.254C772.891 306.07 772.91 306.886 772.929 307.727C772.956 309.436 772.979 311.145 773 312.854C773.108 317.346 773.431 320.283 775.641 324.268C775.808 326.846 775.808 326.846 775.688 329.518C775.521 333.251 775.521 333.251 776.367 336.844C777.219 339.514 777.439 341.832 777.586 344.629C777.614 345.145 777.642 345.661 777.67 346.192C778.035 353.419 778.156 360.655 778.305 367.888C778.451 374.834 778.691 381.733 779.237 388.662C779.471 392.247 779.444 395.818 779.391 399.408C779.372 400.763 779.356 402.117 779.344 403.472C779.335 404.053 779.326 404.634 779.317 405.233C779.329 406.92 779.329 406.92 780.141 409.018C780.177 410.538 780.168 412.059 780.135 413.579C780.121 414.503 780.107 415.426 780.092 416.377C780.084 416.866 780.076 417.356 780.068 417.86C779.933 427.443 780.588 436.616 782.102 446.087C782.589 449.345 782.922 452.614 783.234 455.893C783.297 456.533 783.359 457.173 783.424 457.832C783.736 461.268 783.936 464.684 784.017 468.133C784.132 477.745 784.132 477.745 787.491 486.631C788.935 489.659 789.135 492.821 789.542 496.123C789.795 498.369 789.795 498.369 791.063 500.565C792.248 502.988 792.305 504.502 792.422 507.174C792.651 511.056 793.441 513.035 795.694 516.121C797.315 518.942 797.691 522.082 798.325 525.244C798.83 527.272 799.326 528.495 800.484 530.19C802.24 533.408 802.201 535.976 802.389 539.585C802.693 542.221 803.545 543.903 804.858 546.165C806.169 548.849 806.67 551.734 807.284 554.644C807.901 557.153 807.901 557.153 810.141 560.518C810.141 611.75 810.141 662.983 810.141 715.768C570.561 715.768 330.981 715.768 84.1406 715.768C79.3218 706.13 79.3218 706.13 77.9707 700.607C77.1139 697.521 75.8538 694.644 74.584 691.709C73.7046 689.666 72.8925 687.609 72.0938 685.533C71.2163 683.292 70.3453 681.549 69.0469 679.486C67.266 676.546 67.0315 673.464 66.5625 670.106C66.0283 667.145 65.0387 664.51 63.8906 661.738C63.0517 659.254 62.5695 656.805 62.0793 654.232C61.201 649.798 60.1395 645.403 59.1094 641.002C58.9929 640.502 58.8764 640.002 58.7564 639.487C57.4878 634.047 56.1922 628.621 54.7031 623.236C52.6796 615.785 51.3707 608.349 50.4668 600.69C50.3444 599.679 50.2218 598.668 50.0991 597.657C49.8555 595.646 49.6337 593.636 49.4224 591.62C48.6526 585.148 48.6526 585.148 45.3135 579.745C43.4877 577.317 42.8883 574.332 42.0938 571.44C41.9049 570.786 41.716 570.132 41.5214 569.458C40.6314 566.339 39.8014 563.209 39.0439 560.055C38.9159 559.521 38.7879 558.988 38.6559 558.439C38.3195 557.005 37.9999 555.566 37.6816 554.128C36.951 551.717 35.9685 549.874 34.6699 547.733C32.8001 544.217 31.8514 540.246 30.6899 536.453C28.869 530.72 26.3188 525.813 22.9219 520.861C21.0309 517.907 20.3177 514.944 19.5029 511.56C18.8875 509.507 18.0855 507.963 16.9688 506.143C15.112 503.057 14.5551 500.308 14.2031 496.744C13.5237 494.055 12.2982 492.019 10.9135 489.631C8.80489 485.79 7.26707 481.671 5.62061 477.616C4.13466 474.045 2.67504 471.235 0.140625 468.268C-0.046875 466.158 -0.046875 466.158 0.140625 464.518C3.44664 463.708 4.88845 463.489 7.92188 465.174C8.3579 465.46 8.79393 465.746 9.24317 466.041C10.8532 466.878 11.9775 466.971 13.7813 467.049C16.8311 467.259 18.8411 468.16 21.5156 469.627C27.1194 472.627 32.9622 473.774 39.1406 475.018C39.8841 475.167 40.6276 475.317 41.3936 475.472C41.8876 475.569 42.3816 475.667 42.8906 475.768C42.8634 469.212 40.911 463.874 38.3478 457.939C37.5561 456.068 36.8061 454.183 36.0615 452.292C35.7948 451.615 35.528 450.937 35.2531 450.24C34.7274 448.903 34.2023 447.565 33.678 446.228C33.435 445.616 33.1919 445.004 32.9414 444.373C32.7265 443.828 32.5117 443.283 32.2903 442.721C31.604 441.077 31.604 441.077 30.1406 439.018C30.4219 437.002 30.4219 437.002 30.8906 435.268C32.7534 435.272 34.6072 435.308 36.4688 435.361C36.9845 435.359 37.5003 435.358 38.0317 435.356C42.2219 435.511 44.5174 436.94 47.868 439.368C50.8671 441.313 54.1594 442.221 57.5625 443.236C61.424 444.417 65.147 445.56 68.7393 447.426C71.23 448.937 71.23 448.937 73.6406 448.768C73.5169 447.809 73.3931 446.85 73.2656 445.861C72.9914 443.276 72.8772 440.755 72.9463 438.159C73.1549 430.297 72.2181 424.082 69.8906 416.518C69.4188 414.726 68.9646 412.929 68.5313 411.127C68.3408 410.358 68.1503 409.59 67.9541 408.798C67.6448 406.795 67.6861 405.648 68.3906 403.768C69.1406 403.018 69.1406 403.018 71.1094 402.596C74.5573 403.17 75.3532 404.82 77.4697 407.462C79.323 409.491 81.2799 410.443 83.707 411.669C86.5701 413.296 89.094 415.33 91.6732 417.363C94.3585 419.479 97.0915 421.49 99.8906 423.455C103.656 426.171 106.125 428.87 108.703 432.736C110.396 434.523 111.132 434.898 113.344 435.736C118.212 437.695 121.853 441.288 125.718 444.74C126.914 445.788 128.141 446.787 129.378 447.786C131.391 449.518 131.391 449.518 132.328 451.393C133.815 453.517 134.748 453.926 137.063 455.002C142.093 457.351 147.697 460.502 150.094 465.736C152.132 469.071 154.513 469.965 157.945 471.672C159.891 472.768 159.891 472.768 161.719 474.971C163.741 477.388 165.299 478.278 168.047 479.752C171.941 481.907 174.162 484.056 176.716 487.65C178.877 490.625 181.114 493.348 184.84 494.119C190.182 494.331 193.108 492.151 196.986 488.57C197.558 488.034 197.558 488.034 198.141 487.486C198.522 487.134 198.902 486.783 199.295 486.42C201.716 484.173 204.066 481.865 206.391 479.518C214.641 471.268 214.641 471.268 216.574 469.36C217.751 468.167 218.895 466.939 219.996 465.675C224.117 461.073 224.117 461.073 226.945 460.229C229.726 460.117 231.63 460.656 234.188 461.752C236.537 465.01 236.103 468.136 235.641 472.018C235.19 474.258 234.639 476.441 234.032 478.645C233.117 482.03 232.426 485.455 231.709 488.887C231.162 491.419 230.546 493.926 229.922 496.44C228.949 500.561 228.548 504.561 228.372 508.788C228.141 511.018 228.141 511.018 227.388 513.133C226.633 515.543 226.455 517.391 226.458 519.905C226.456 520.751 226.454 521.597 226.451 522.468C226.457 523.371 226.462 524.273 226.468 525.203C226.468 526.139 226.468 527.074 226.469 528.038C226.472 530.515 226.481 532.992 226.494 535.469C226.502 537.49 226.502 539.511 226.501 541.533C226.502 543.949 226.508 546.365 226.515 548.781C226.516 550.14 226.516 550.14 226.517 551.525C226.524 552.787 226.524 552.787 226.532 554.074C226.535 554.813 226.537 555.553 226.54 556.314C226.632 558.09 226.941 559.559 227.391 561.268C227.386 563.08 227.352 564.893 227.297 566.705C227.232 570.516 227.474 573.535 229.099 577.003C229.818 579.013 229.891 580.89 230.016 583.018C230.221 586.309 230.727 588.772 232.025 591.772C233.187 595.068 233.657 598.569 234.258 602.005C234.915 604.874 235.98 607.32 237.141 610.018C237.557 612.209 237.557 612.209 237.797 614.33C238.404 618.412 239.659 621.688 241.477 625.375C242.274 627.026 242.892 628.625 243.469 630.361C244.297 632.683 245.42 634.492 246.844 636.502C248.576 638.973 249.657 641.228 250.594 644.096C252.112 648.601 254.542 652.001 257.391 655.768C260.345 659.777 262.943 663.752 265.219 668.19C267.255 672.101 269.559 675.081 272.59 678.259C274.41 680.37 275.248 682.395 276.141 685.018C276.636 685.018 277.131 685.018 277.641 685.018C278.766 683.905 278.766 683.905 279.938 682.44C281.954 680.062 284.042 677.828 286.266 675.643C288.839 673.104 291.235 670.48 293.584 667.735C294.945 666.207 296.375 664.787 297.844 663.361C300.625 660.623 303.027 657.68 305.432 654.61C308.101 651.239 310.888 647.988 313.969 644.986C318.181 640.671 321.74 635.758 325.315 630.912C326.383 629.527 327.517 628.238 328.688 626.94C330.348 625.047 331.551 623.169 332.719 620.94C334.006 618.493 335.393 616.552 337.266 614.518C339.578 612.001 341.134 609.454 342.7 606.429C343.661 604.732 344.751 603.321 345.984 601.815C347.701 599.62 348.533 597.809 349.219 595.111C350.597 589.778 354.02 585.826 357.375 581.565C358.624 579.297 358.825 578.202 359.109 575.705C359.844 570.671 362.347 566.858 364.883 562.547C367.176 558.574 368.539 554.984 369.413 550.457C369.918 548.407 370.663 546.981 371.766 545.19C373.831 541.788 374.564 538.383 375.311 534.499C375.758 532.584 376.262 531 376.986 529.196C378.362 525.656 378.993 522.061 379.641 518.33C382.371 503.307 382.371 503.307 384.141 499.768C384.238 498.352 384.293 496.933 384.325 495.514C384.35 494.659 384.375 493.804 384.4 492.924C384.446 491.123 384.489 489.322 384.529 487.522C384.554 486.663 384.58 485.805 384.606 484.92C384.635 483.744 384.635 483.744 384.663 482.545C384.891 480.268 384.891 480.268 385.642 478.023C386.453 475.581 386.604 473.597 386.648 471.03C386.671 470.148 386.693 469.266 386.716 468.357C386.749 466.513 386.782 464.669 386.815 462.826C386.838 461.945 386.86 461.063 386.883 460.155C386.897 459.355 386.911 458.555 386.925 457.731C387.141 455.518 387.141 455.518 387.906 453.762C388.964 450.89 388.76 448.25 388.649 445.22C388.632 444.596 388.615 443.972 388.598 443.33C388.561 442.017 388.519 440.704 388.475 439.391C388.406 437.376 388.35 435.362 388.296 433.347C388.259 432.07 388.22 430.793 388.181 429.517C388.163 428.913 388.146 428.309 388.128 427.687C388.085 424.628 388.085 424.628 387.141 421.768C386.988 419.753 386.876 417.753 386.792 415.735C386.733 414.5 386.674 413.264 386.615 412.028C386.525 410.081 386.438 408.134 386.353 406.187C386.271 404.307 386.18 402.428 386.089 400.548C386.066 399.973 386.043 399.397 386.02 398.805C385.843 395.254 385.174 392.19 384.141 388.768C384.238 386.298 384.558 383.926 384.894 381.479C385.052 378.928 385.052 378.928 383.786 376.442C382.476 373.383 382.481 371.399 382.641 368.096C382.788 363.111 382.128 358.776 380.936 353.913C380.156 350.129 380.009 346.403 379.872 342.549C379.74 340.029 379.74 340.029 378.891 337.788C377.73 334.275 377.839 330.758 377.722 327.083C377.545 324.264 377.545 324.264 376.269 321.93C374.341 317.833 374.738 313.188 374.672 308.752C374.634 306.937 374.593 305.121 374.549 303.306C374.529 302.107 374.529 302.107 374.509 300.884C374.406 299.041 374.117 297.536 373.641 295.768C373.544 294.769 373.475 293.767 373.43 292.765C373.402 292.209 373.374 291.654 373.345 291.082C373.292 289.921 373.239 288.761 373.187 287.601C373.064 285.17 372.915 283.09 372.141 280.768C371.892 277.056 372.191 273.48 372.727 269.805C373.031 266.486 372.901 263.153 372.844 259.823C372.891 257.518 372.891 257.518 373.641 255.268C373.756 254.157 373.837 253.043 373.897 251.929C373.953 250.918 373.953 250.918 374.011 249.887C374.068 248.797 374.068 248.797 374.127 247.686C374.216 246.145 374.306 244.604 374.397 243.063C374.536 240.635 374.672 238.208 374.801 235.78C374.927 233.435 375.065 231.092 375.205 228.748C375.24 228.028 375.276 227.307 375.312 226.565C375.574 222.352 376.29 219.307 378.141 215.518C378.656 213.887 378.656 213.887 378.964 212.395C379.084 211.852 379.204 211.31 379.328 210.751C379.447 210.189 379.565 209.628 379.688 209.049C379.818 208.458 379.948 207.866 380.082 207.257C380.829 203.785 381.378 200.344 381.797 196.814C382.38 192.587 383.92 189.654 386.109 186.033C387.207 183.889 387.574 182.176 387.891 179.799C388.42 175.988 389.762 173.754 392.016 170.688C393.162 168.986 393.845 167.425 394.547 165.502C395.933 161.776 397.829 158.432 399.837 155.018C401.94 151.425 403.798 147.75 405.574 143.983C407.59 140.268 410.384 137.45 413.391 134.518C414.009 133.899 414.628 133.28 415.266 132.643C420.891 127.018 420.891 127.018 422.865 125.09C424.351 123.565 425.579 122.097 426.797 120.361C430.069 115.923 433.556 111.664 438.891 109.768C441.469 110.085 442.625 111.048 444.422 112.861C447.868 116.015 451.758 117.861 455.939 119.834C458.391 121.018 458.391 121.018 460.4 122.239C466.099 125.607 473.007 124.931 479.391 124.768C479.143 124.273 478.896 123.778 478.641 123.268C478.087 123.294 477.533 123.32 476.962 123.347C468.752 123.566 462.56 122.081 455.648 117.619C454.046 116.615 452.473 115.833 450.75 115.064C446.909 113.194 443.691 110.354 441.759 106.516C439.844 100.325 440.786 93.1233 443.391 87.2676C444.716 84.8653 446.236 82.7029 447.891 80.5176C448.259 79.9646 448.627 79.4116 449.007 78.8418C452.701 73.818 456.976 73.2746 462.891 72.2676C463.912 71.9578 464.929 71.6338 465.938 71.2832C468.141 70.7676 468.141 70.7676 469.781 71.0957Z" fill="#F2F4F3"/>
<path d="M509.391 1.7672C514.908 3.83172 519.882 6.76458 524.876 9.846C527.277 11.3246 529.62 12.657 532.219 13.7672C535.384 15.2505 537.274 17.7902 539.478 20.4352C541.217 22.3832 543.197 23.6212 545.391 25.0172C547.144 26.9213 548.299 28.5675 549.375 30.9234C550.554 33.1063 551.376 34.0125 553.172 35.6109C556.159 38.4279 557.348 41.5465 558.712 45.3668C559.719 47.6979 561.03 49.3191 562.641 51.2672C564.064 55.5378 563.486 60.2941 563.391 64.7672C563.381 65.2965 563.372 65.8258 563.362 66.3712C563.104 77.8188 563.104 77.8188 559.641 82.7672C558.038 83.6637 558.038 83.6637 556.641 84.2672C556.95 82.1009 557.277 80.6826 558.526 78.8601C560.586 74.9919 560.029 70.4938 560.016 66.1983C560.016 64.4957 560.047 62.7956 560.08 61.0934C560.128 55.2491 560.047 51.2253 555.891 46.7672C555.079 44.8248 555.079 44.8248 554.531 43.0641C553.162 39.3703 551.173 37.3425 548.297 34.7203C546.866 33.2418 546.188 32.0521 545.391 30.1734C544.033 27.0914 542.132 25.7462 539.385 23.8893C537.873 22.754 536.946 21.6543 535.828 20.1422C533.389 17.1554 530.467 15.8742 527.013 14.274C523.459 12.5706 520.071 10.6108 516.662 8.63622C510.319 5.00243 504.151 2.40009 496.641 3.2672C494.889 4.01328 493.139 4.76356 491.391 5.5172C490.281 5.5172 489.172 5.49995 488.062 5.47032C481.744 5.93688 476.281 11.0361 471.891 15.2672C469.982 17.6581 469.044 19.861 468.141 22.7672C467.796 23.7511 467.451 24.7345 467.103 25.7174C464.268 34.0587 464.326 40.5725 465.703 49.2516C465.821 50.0593 465.939 50.8671 466.061 51.6993C466.795 56.3662 467.874 60.4914 469.794 64.8146C470.391 66.2672 470.391 66.2672 470.391 67.7672C470.773 67.6483 471.156 67.5294 471.551 67.4068C477.216 66.207 483.868 65.9827 488.868 69.109C492.001 70.7141 495.444 71.4807 498.833 72.3879C503.221 73.5977 506.741 74.7832 509.109 78.9234C510.098 80.6473 511.02 82.1827 512.25 83.7516C513.728 87.0966 513.604 90.4279 513.141 94.0172C511.811 96.9961 510.698 98.1536 507.984 99.9234C503.201 101.624 497.157 101.906 492.448 99.9674C490.71 98.8461 489.193 97.6332 487.641 96.2672C487.08 95.8147 486.519 95.3623 485.941 94.8961C479.928 89.8647 474.996 84.669 473.13 76.9225C472.465 74.6744 471.254 73.1862 469.641 71.5172C468.098 71.8571 466.556 72.201 465.018 72.5602C463.516 72.8829 462.001 73.1513 460.482 73.3805C454.926 74.3389 451.844 75.6553 448.377 80.1686C443.065 88.1117 441.122 94.8955 441.891 104.517C443.426 109.701 447.813 112.977 452.402 115.521C453.931 116.282 455.469 117.026 457.017 117.748C459.141 118.767 459.141 118.767 461.098 119.965C466.42 123.087 472.662 122.699 478.641 122.517C478.888 123.26 479.136 124.002 479.391 124.767C472.352 126.584 465.076 125.609 458.66 122.221C457.395 121.455 456.139 120.67 454.895 119.869C453.309 118.873 451.75 118.084 450.047 117.314C445.8 115.238 442.328 112.279 439.687 108.361C436.998 100.449 438.552 92.4893 441.891 84.9234C444.837 79.6192 449.013 73.7603 454.69 71.2506C456.926 70.6882 459.107 70.3174 461.391 70.0172C462.706 69.7322 464.019 69.4365 465.328 69.1266C466.72 68.8249 466.72 68.8249 468.141 68.5172C467.948 68.1469 467.755 67.7765 467.557 67.3949C465.092 62.3145 464.05 57.2257 463.078 51.6891C462.913 50.8165 462.747 49.944 462.577 49.045C460.775 39.1006 461.537 32.1745 465.141 22.7672C465.573 21.594 465.573 21.594 466.014 20.3971C468.058 15.3408 470.546 12.4865 474.891 9.2672C475.528 8.73063 476.165 8.19405 476.821 7.64122C481.102 4.19069 484.061 2.71619 489.571 2.62267C491.555 2.62776 491.555 2.62776 493.734 1.34532C498.563 -1.06879 504.414 0.201568 509.391 1.7672Z" fill="#1E4437"/>
<path d="M454.031 243.033C454.732 243.012 455.432 242.99 456.154 242.967C461.924 242.915 465.027 244.129 469.36 248.049C469.947 248.699 470.535 249.348 471.141 250.018C471.785 250.633 472.429 251.248 473.092 251.881C475.758 255.109 475.496 258.655 475.453 262.674C475.494 263.749 475.494 263.749 475.535 264.845C475.535 269.737 474.488 272.292 471.063 275.788C465.681 280.443 460.023 282.708 452.845 282.49C445.375 281.639 440.574 277.435 435.891 271.768C434.865 268.69 434.943 265.805 434.906 262.58C434.885 261.955 434.863 261.329 434.841 260.685C434.785 255.274 436.055 252.203 439.858 248.219C440.436 247.73 441.014 247.241 441.61 246.736C442.192 246.236 442.774 245.735 443.373 245.219C446.682 242.6 449.957 243.075 454.031 243.033Z" fill="#11372C"/>
<path d="M547.228 237.879C550.095 240.663 551.981 243.081 552.366 247.146C552.403 258.493 552.403 258.493 547.975 263.382C542.138 269.239 537.419 271.757 529.125 272.095C525.171 271.994 522.877 271.53 519.891 268.767C518.939 267.978 518.939 267.978 517.969 267.173C513.58 261.997 511.323 256.108 511.377 249.361C511.991 243.903 514.192 238.63 518.391 235.017C528.217 230.193 538.418 231.346 547.228 237.879Z" fill="#12372D"/>
<path d="M479.501 69.0246C483.072 69.0842 485.389 69.6078 488.382 71.4645C490.305 72.4877 492.172 72.8767 494.297 73.3453C504.449 75.7937 504.449 75.7937 507.855 80.1334C510.345 84.3397 511.645 87.6546 510.891 92.5172C509.543 95.708 507.945 96.9792 504.891 98.5172C500.322 99.2806 495.741 99.3226 491.719 96.8297C485.302 91.8387 477.5 85.1155 475.219 77.0953C474.414 74.4766 473.439 72.3028 471.891 70.0172C473.602 68.3063 477.193 69.0368 479.501 69.0246Z" fill="#F0F3F1"/>
<path d="M479.501 69.0246C483.07 69.0841 485.387 69.6077 488.379 71.4616C490.315 72.4936 492.206 72.9062 494.344 73.3922C498.373 74.3188 501.946 75.679 505.641 77.5172C504.891 79.0172 504.891 79.0172 503.323 79.6354C502.618 79.849 501.914 80.0627 501.188 80.2828C496.917 81.6411 492.75 83.1926 488.578 84.8297C487.97 85.0682 487.362 85.3067 486.736 85.5524C485.287 86.1223 483.838 86.6945 482.391 87.2672C478.459 83.3489 476.357 80.6881 474.712 75.4137C474.024 73.4317 473.065 71.7509 471.891 70.0172C473.602 68.3063 477.193 69.0368 479.501 69.0246Z" fill="#A5E1A9"/>
<path d="M552.891 37.7676C554.273 37.873 554.273 37.873 555.891 38.5176C556.898 40.4277 556.898 40.4277 557.766 42.8301C558.99 46.1887 560.362 48.5221 562.641 51.2676C564.064 55.5382 563.486 60.2945 563.391 64.7676C563.381 65.2969 563.372 65.8262 563.362 66.3716C563.105 77.8192 563.105 77.8192 559.641 82.7676C558.038 83.6641 558.038 83.6641 556.641 84.2676C556.95 82.1013 557.277 80.683 558.526 78.8605C560.586 74.9923 560.029 70.4942 560.016 66.1987C560.016 64.4961 560.047 62.796 560.08 61.0938C560.128 55.2501 560.055 51.2184 555.891 46.7676C554.868 44.667 554.868 44.667 554.156 42.7832C553.912 42.1519 553.667 41.5206 553.415 40.8701C552.891 39.2676 552.891 39.2676 552.891 37.7676Z" fill="#244B3C"/>
<path d="M624.891 328.768C625.633 328.768 626.376 328.768 627.141 328.768C626.449 337.757 619.151 344.803 612.732 350.485C609.135 353.294 604.823 356.518 600.141 356.518C600.141 355.775 600.141 355.033 600.141 354.268C600.668 354.065 601.196 353.862 601.74 353.652C612.964 348.758 620.36 339.976 624.891 328.768Z" fill="#21433A"/>
<path d="M546.891 31.7676C549.59 32.1842 550.64 33.0792 552.328 35.1895C552.914 35.9102 552.914 35.9102 553.512 36.6455C553.802 37.0158 554.092 37.3861 554.391 37.7676C553.648 38.0151 552.906 38.2626 552.141 38.5176C551.261 37.6785 550.387 36.8337 549.516 35.9863C549.028 35.5165 548.541 35.0466 548.039 34.5625C546.891 33.2676 546.891 33.2676 546.891 31.7676Z" fill="#153B2F"/>
<path d="M606.141 351.268C606.636 351.515 607.131 351.763 607.641 352.018C606.852 354.167 606.389 354.89 604.313 355.955C602.391 356.518 602.391 356.518 600.141 356.518C600.141 355.775 600.141 355.033 600.141 354.268C601.106 353.745 602.075 353.231 603.047 352.721C603.586 352.434 604.126 352.146 604.682 351.851C605.163 351.658 605.645 351.466 606.141 351.268Z" fill="#274940"/>
</svg>
