<svg fill="none" version="1.1" viewBox="0 0 811 716" xmlns="http://www.w3.org/2000/svg">
	<path d="m509 77.5c19.2-4.87 55.1-6.01 51 3.65 23.5-17.3 68.9 9.47 93 23.9 30.7 18.4 57 45 74.4 77 15.3 28.3 29.9 56.8 37.4 88.2 7.59 32 13.4 64.2 13.9 97.6 0.52 37.9 0.848 76.1 7.24 113 5.02 29.3 24.6 56 24.6 85.4v149h-726c-18.9-41.1-25.2-86.5-35.8-130-7.03-29.1-19.5-56.8-33.3-83.7-6.62-18.3-26.3-49.1 6.49-32 35.2 20.2 12.6-17.5 9.38-34.4 18.9-1.7 53.5 31.8 41.5-8.04-17.2-49.4 31.4 2.43 47.5 12.5 23.8 17.1 44.3 57.6 71.6 53.1 19.5-3.2 52.4-54.2 41.3-9.02-15 62.5-0.78 129 32.4 184 22.1 37 47.7-23.8 63.5-41.2 32.8-36.2 49.9-85.4 55.7-134 3.43-28.8 4.87-57.5 1.95-86.7-3.24-32.4-7.37-64.9-11.7-97.4-3.88-29.2-3.57-58.9 1.46-87.9 5.37-31 17.6-60.9 37.3-86.4 15.7-20.4 56.1-45.8 95.2-57z" fill="#f2f4f3"/>
	<path d="m547 31.8c2.7 0.417 3.75 1.31 5.44 3.42 0.586 0.721 0.586 0.721 1.18 1.46 0.29 0.37 0.58 0.741 0.879 1.12-0.743 0.248-1.48 0.495-2.25 0.75-0.88-0.839-1.75-1.68-2.62-2.53-0.488-0.47-0.975-0.94-1.48-1.42-1.15-1.29-1.15-1.29-1.15-2.79z" fill="#153B2F"/>
	<path d="m625 329c-2.8 6.93-8.31 16.6-18.6 22.6-2.2 0.527-4.18 1.84-6.18 2.91v2.25c2.25 0 2.25 5e-4 4.17-0.562 0.554-0.284 0.988-0.545 1.35-0.814 4.01-1.86 8.54-5.57 13.7-11 3.92-4.25 7.34-9.44 7.78-15.4zm-77.7-90.9c3.54 2.98 5.73 7.5 5.14 12.2 0.11 4.39 0.0678 9.38-3.62 12.5-4.72 5.5-11.5 9.47-18.9 9.54-4.08 0.402-8.16-1.07-11-4.08-5.32-5.05-8.21-12.8-7.34-20.1 0.935-5.04 3.17-10.5 7.72-13.2 9.05-4.38 20.1-2.85 27.9 3.3zm-93.2 5.15c5.56-0.586 11.4 0.831 15.3 5.02 3.03 3.01 6.51 6.29 6.1 11-0.036 5.27 0.908 11.4-3.22 15.5-6.9 7.63-19.5 10.9-28.4 4.76-3.17-2.35-6.68-5.02-8.28-8.66-0.882-4.73-0.903-9.66-0.342-14.4 1.14-5.39 5.59-9.31 10-12.2 2.74-1.33 5.85-0.968 8.79-1.02z" fill="#24463d"/>
	<path d="m499 0.00582c-5.64 1.33-11 2.84-16.8 3.87-5.4 2.83-10.4 6.82-14.2 11.6-4.29 7.52-7.03 16.2-6.93 24.9 0.677 9.16 2.16 18.5 5.91 27-1.21 3.7-11 1.79-14.9 4.95-10.4 7.32-16.3 21.2-13.6 33.8 1.91 6.67 8.86 10.2 14.7 13 7.28 5.37 16.8 8.09 25.7 5.61-2.15-4.86-10.6-0.349-15.2-3.39-6.36-3.48-13.6-5.78-18.9-11.1-4.8-4.4-3.84-11.4-2.83-17.1 2.06-7.65 5.96-16.6 14.2-19 5.56-0.277 14.6-4.12 16.1 1.9 2.32 10.6 11.3 17.8 19.6 23.9 5.74 2 13.2 2.22 18-1.9 4.9-4.77 3.46-13-0.613-17.9-2.27-5.48-8.28-7.31-13.6-8.46-7.12-1.89-13.7-6.77-21.5-4.87-4.91 2.12-4.82-2.3-6.6-6.05-3.27-11.5-5.27-24.3-0.861-35.8 1.45-6.87 6.1-12.3 11.9-16 4.77-4.53 11.5-2.19 16.7-5.41 10.2-2.2 19.2 4.47 27.7 9.06 7.18 2.41 12.1 7.78 17.6 12.6 4.54 5.2 8.32 11.1 12.7 16.5 1.71 5.93 7.15 10.5 6.1 17.2-0.751 7 1.71 14.9-2.34 21.2-3.67 6.54 3.32 2.74 4.24-1.09 2.18-6.48 0.978-13.5 1.6-20.3 1.2-5.96-3.42-9.82-5.38-14.8-1.41-6.44-7.79-9.55-10.1-15.4-3.88-5.11-9.72-8.33-13.7-13.5-8.48-4.12-16.1-9.97-25-13.3-3.2-1-6.52-1.83-9.89-1.76zm-22.8 70c1.29-0.0303 2.65 0.135 3.72 0.129 3.3 0.055 5.44 0.539 8.2 2.25 1.78 0.945 3.5 1.3 5.46 1.74 9.38 2.26 10.1 2.21 13.5 6.27 2.45 3.94 3.73 7.04 2.99 11.6-1.33 2.99-2.9 4.18-5.9 5.62-4.49 0.715-9 0.755-13-1.58-6.31-4.67-13.1-11-15.2-18.4-0.743-2.42-1.64-4.43-3.07-6.54 0.79-0.79 2.02-1.01 3.31-1.04z" fill="#1e4437"/>
</svg>
