<svg width="305" height="313" viewBox="0 0 305 313" fill="none" xmlns="http://www.w3.org/2000/svg">
<path d="M0.272044 0.199461C8.81551 0.173821 17.359 0.150031 25.9025 0.136105C26.0921 0.135795 26.0921 0.135795 26.2855 0.135479C29.0326 0.131001 31.7797 0.126856 34.5268 0.123055C35.8739 0.121188 37.221 0.119248 38.5681 0.11727C38.7022 0.117074 38.8362 0.116878 38.9744 0.116677C43.321 0.110299 47.6676 0.0990582 52.0143 0.0853015C56.4803 0.0711925 60.9463 0.0619787 65.4123 0.058941C66.0428 0.0585098 66.6734 0.0580226 67.3039 0.0575012C67.428 0.0574003 67.5521 0.0572995 67.68 0.0571955C69.6791 0.0554261 71.6782 0.048483 73.6774 0.0396139C75.6863 0.0308117 77.6952 0.0274389 79.7041 0.029635C80.8983 0.0307747 82.0923 0.0277249 83.2865 0.0187181C84.0838 0.0131138 84.8811 0.0129285 85.6785 0.0171706C86.1332 0.0194339 86.5873 0.0184979 87.0421 0.012605C89.8858 -0.0221141 89.8857 -0.0221141 90.4884 0.520313C90.7744 0.905108 90.9529 1.25421 91.1349 1.6957C91.2887 1.92922 91.4468 2.16002 91.6109 2.38644C91.7698 2.62081 91.9285 2.85531 92.087 3.08993C92.8056 4.14897 93.5309 5.20298 94.2634 6.25245C95.1579 7.53467 96.0413 8.82413 96.9206 10.1169C97.5148 10.9904 98.1136 11.8608 98.7129 12.7308C98.8876 12.9847 99.0619 13.2388 99.2362 13.493C99.9716 14.5653 100.712 15.6338 101.456 16.7007C102.348 17.9822 103.233 19.2685 104.113 20.5588C104.774 21.5264 105.435 22.4928 106.097 23.4593C106.159 23.5498 106.221 23.6402 106.285 23.7335C107.073 24.884 107.868 26.0301 108.665 27.1744C109.562 28.4622 110.451 29.7554 111.335 31.0518C111.657 31.5226 111.98 31.9925 112.303 32.4622C112.364 32.5505 112.425 32.6388 112.487 32.7297C112.609 32.9063 112.73 33.0829 112.852 33.2594C113.162 33.7106 113.472 34.1618 113.783 34.6131C113.907 34.7944 114.032 34.9758 114.157 35.1572C114.905 36.2453 114.905 36.2453 115.092 36.5171C115.217 36.6993 115.342 36.8814 115.467 37.0636C115.771 37.5049 116.074 37.9464 116.377 38.3882C117.112 39.4594 117.852 40.5269 118.594 41.5927C119.632 43.0821 120.658 44.5791 121.68 46.0788C122.55 47.3535 123.425 48.6243 124.307 49.8901C125.286 51.2936 126.251 52.7055 127.213 54.1204C128.232 55.6176 129.257 57.1101 130.292 58.5955C131.192 59.8863 132.081 61.1842 132.966 62.4854C133.561 63.359 134.159 64.2293 134.759 65.0994C134.933 65.3532 135.108 65.6073 135.282 65.8615C136.012 66.9254 136.747 67.9854 137.484 69.0437C138.39 70.3426 139.284 71.6484 140.175 72.9575C141.127 74.3577 142.089 75.751 143.054 77.1428C143.595 77.9251 144.134 78.7096 144.672 79.4938C144.985 79.9495 145.299 80.405 145.612 80.8606C145.736 81.042 145.861 81.2233 145.986 81.4047C146.048 81.4945 146.109 81.5842 146.173 81.6767C148.23 84.6692 148.23 84.6692 148.417 84.941C148.542 85.1232 148.668 85.3053 148.793 85.4875C149.096 85.9288 149.4 86.3703 149.703 86.8121C150.437 87.8833 151.177 88.9508 151.92 90.0166C152.817 91.305 153.707 92.5988 154.592 93.8958C154.907 94.3576 155.224 94.8183 155.541 95.279C155.928 95.841 156.315 96.4034 156.699 96.967C157.509 98.1539 158.324 99.337 159.146 100.516C160.033 101.789 160.913 103.067 161.787 104.348C162.447 105.316 163.109 106.282 163.771 107.249C163.833 107.339 163.895 107.43 163.958 107.523C164.752 108.682 165.552 109.837 166.355 110.99C166.541 111.256 166.726 111.523 166.912 111.79C167.246 112.27 167.58 112.749 167.915 113.228C168.053 113.426 168.19 113.623 168.327 113.82C168.39 113.91 168.453 113.999 168.518 114.091C168.94 114.699 168.94 114.699 168.94 115.002C169.959 114.016 170.871 112.937 171.762 111.835C172.156 111.36 172.571 110.905 172.987 110.449C173.301 110.096 173.599 109.733 173.896 109.366C174.421 108.717 174.975 108.102 175.54 107.487C175.978 107 176.388 106.492 176.8 105.982C177.191 105.507 177.605 105.055 178.02 104.6C178.334 104.247 178.632 103.885 178.929 103.517C179.454 102.868 180.008 102.253 180.573 101.639C181.011 101.151 181.421 100.643 181.832 100.133C182.128 99.7749 182.433 99.4304 182.746 99.0876C183.169 98.6227 183.574 98.1483 183.97 97.6594C184.461 97.0523 184.974 96.4723 185.5 95.8953C185.817 95.539 186.119 95.1735 186.418 94.8029C186.91 94.1957 187.423 93.6154 187.949 93.0383C188.263 92.6851 188.562 92.3227 188.858 91.9549C189.383 91.3058 189.938 90.6908 190.503 90.0766C190.941 89.5889 191.35 89.0808 191.762 88.5708C192.057 88.213 192.363 87.8686 192.675 87.5257C193.099 87.0609 193.504 86.5864 193.9 86.0975C194.391 85.4902 194.904 84.91 195.43 84.3329C195.744 83.9797 196.043 83.6172 196.34 83.2495C196.865 82.6003 197.419 81.9854 197.984 81.3712C198.422 80.8835 198.832 80.3754 199.243 79.8654C199.539 79.5076 199.844 79.1631 200.157 78.8203C200.58 78.3554 200.985 77.881 201.381 77.392C201.872 76.7848 202.386 76.2046 202.912 75.6275C203.226 75.2742 203.524 74.9118 203.821 74.5441C204.346 73.8949 204.9 73.2799 205.465 72.6658C205.903 72.178 206.313 71.67 206.725 71.16C207.02 70.8022 207.325 70.4577 207.638 70.1149C208.062 69.65 208.467 69.1756 208.862 68.6866C209.353 68.0796 209.867 67.4995 210.392 66.9226C210.709 66.5663 211.011 66.2008 211.31 65.8302C211.802 65.2229 212.315 64.6427 212.841 64.0656C213.155 63.7123 213.454 63.3499 213.75 62.9822C214.275 62.333 214.83 61.7181 215.395 61.1039C215.833 60.6161 216.243 60.1081 216.654 59.5981C216.949 59.2403 217.255 58.8958 217.568 58.553C217.991 58.0881 218.396 57.6137 218.792 57.1247C219.283 56.5175 219.796 55.9373 220.322 55.3602C220.636 55.0069 220.935 54.6445 221.232 54.2768C221.757 53.6276 222.311 53.0126 222.876 52.3985C223.314 51.9107 223.724 51.4027 224.135 50.8927C224.431 50.5349 224.736 50.1904 225.049 49.8476C225.472 49.3827 225.877 48.9083 226.273 48.4193C226.764 47.8121 227.278 47.2318 227.804 46.6548C228.118 46.3015 228.416 45.9391 228.713 45.5714C229.238 44.9222 229.792 44.3072 230.357 43.6931C230.795 43.2053 231.205 42.6973 231.617 42.1873C231.912 41.8294 232.217 41.485 232.53 41.1421C232.954 40.6773 233.359 40.2029 233.754 39.7139C234.245 39.1069 234.759 38.5268 235.284 37.9499C235.601 37.5935 235.903 37.2281 236.203 36.8574C236.694 36.2502 237.207 35.67 237.733 35.0929C238.047 34.7396 238.346 34.3772 238.642 34.0095C239.167 33.3603 239.722 32.7453 240.287 32.1312C240.725 31.6434 241.135 31.1354 241.546 30.6254C241.842 30.2676 242.147 29.9231 242.46 29.5803C242.883 29.1154 243.288 28.641 243.684 28.152C244.175 27.5448 244.689 26.9645 245.215 26.3874C245.528 26.0342 245.827 25.6718 246.124 25.3041C246.649 24.6547 247.203 24.0395 247.769 23.4252C248.097 23.0597 248.408 22.6853 248.717 22.3031C249.239 21.6561 249.79 21.0442 250.353 20.4328C250.681 20.0672 250.993 19.6928 251.301 19.3106C251.823 18.6637 252.375 18.0517 252.938 17.4403C253.266 17.0747 253.577 16.7004 253.885 16.3181C254.407 15.6712 254.959 15.0592 255.522 14.4478C255.85 14.0822 256.161 13.7079 256.47 13.3256C256.992 12.6787 257.544 12.0667 258.106 11.4553C258.435 11.0898 258.746 10.7154 259.054 10.3331C259.576 9.6862 260.128 9.07422 260.691 8.46281C261.019 8.09727 261.33 7.72289 261.639 7.34063C262.161 6.69371 262.712 6.08173 263.275 5.47032C263.603 5.10478 263.915 4.73041 264.223 4.34814C264.744 3.70269 265.294 3.09195 265.856 2.48208C266.309 1.97685 266.736 1.45186 267.16 0.922079C267.246 0.818277 267.331 0.714475 267.42 0.607527C267.471 0.534721 267.522 0.461914 267.575 0.386902C267.97 0.0937292 268.39 0.144764 268.863 0.150389C269.023 0.149866 269.023 0.149866 269.186 0.149332C269.543 0.148658 269.901 0.150908 270.259 0.153135C270.515 0.15325 270.771 0.153185 271.027 0.152954C271.723 0.152837 272.419 0.15524 273.115 0.158085C273.842 0.160632 274.569 0.160876 275.296 0.16136C276.674 0.16263 278.051 0.16598 279.428 0.170072C280.996 0.174629 282.564 0.176876 284.132 0.178925C287.357 0.183194 290.582 0.190374 293.808 0.199461C293.68 0.372437 293.551 0.545202 293.423 0.717879C293.315 0.862226 293.315 0.862226 293.206 1.00949C292.914 1.38879 292.598 1.73008 292.269 2.07827C291.673 2.71624 291.115 3.37576 290.568 4.0559C290.274 4.41244 289.97 4.75505 289.659 5.09626C289.238 5.55819 288.836 6.0296 288.444 6.51599C287.919 7.16515 287.364 7.78013 286.799 8.39427C286.361 8.88204 285.951 9.39007 285.54 9.90007C285.244 10.2579 284.939 10.6024 284.626 10.9452C284.203 11.4101 283.798 11.8845 283.402 12.3734C282.911 12.9807 282.398 13.5609 281.871 14.138C281.558 14.4913 281.259 14.8537 280.962 15.2214C280.437 15.8706 279.883 16.4855 279.318 17.0997C278.88 17.5875 278.47 18.0955 278.059 18.6055C277.667 19.0801 277.253 19.5323 276.839 19.987C276.525 20.3402 276.226 20.7026 275.93 21.0704C275.405 21.7195 274.85 22.3345 274.285 22.9486C273.847 23.4364 273.437 23.9444 273.026 24.4544C272.73 24.8123 272.425 25.1567 272.112 25.4996C271.689 25.9644 271.284 26.4388 270.888 26.9278C270.397 27.5349 269.884 28.1149 269.358 28.6919C269.041 29.0482 268.74 29.4136 268.44 29.7843C267.949 30.3915 267.435 30.9718 266.909 31.5489C266.595 31.9021 266.297 32.2645 266 32.6322C265.475 33.2814 264.921 33.8964 264.355 34.5105C263.917 34.9983 263.508 35.5063 263.096 36.0163C262.801 36.3742 262.495 36.7186 262.183 37.0615C261.759 37.5263 261.354 38.0007 260.959 38.4897C260.467 39.0969 259.954 39.6772 259.428 40.2543C259.114 40.6075 258.815 40.9699 258.519 41.3377C257.994 41.9868 257.439 42.6018 256.874 43.2159C256.436 43.7037 256.027 44.2117 255.615 44.7218C255.223 45.1963 254.809 45.6485 254.395 46.1032C254.081 46.4565 253.783 46.8189 253.486 47.1866C252.961 47.8358 252.407 48.4508 251.841 49.0649C251.403 49.5527 250.994 50.0607 250.582 50.5707C250.287 50.9285 249.981 51.273 249.669 51.6158C249.245 52.0807 248.84 52.5551 248.445 53.0441C247.953 53.6513 247.44 54.2316 246.914 54.8086C246.6 55.1619 246.301 55.5243 246.005 55.892C245.48 56.5412 244.925 57.1562 244.36 57.7703C243.922 58.2581 243.513 58.7661 243.101 59.2761C242.709 59.7507 242.295 60.2029 241.881 60.6576C241.567 61.0108 241.269 61.3733 240.972 61.741C240.447 62.3902 239.893 63.0051 239.327 63.6193C238.889 64.107 238.48 64.6151 238.068 65.1251C237.773 65.4829 237.467 65.8274 237.155 66.1702C236.731 66.6351 236.326 67.1095 235.93 67.5984C235.439 68.2057 234.926 68.7859 234.4 69.363C234.086 69.7163 233.787 70.0787 233.491 70.4464C232.966 71.0956 232.411 71.7105 231.846 72.3247C231.408 72.8125 230.998 73.3205 230.587 73.8305C230.292 74.1883 229.986 74.5328 229.673 74.8756C229.25 75.3405 228.845 75.8149 228.449 76.3039C227.958 76.9111 227.445 77.4913 226.918 78.0684C226.605 78.4217 226.306 78.7841 226.009 79.1518C225.484 79.801 224.93 80.416 224.365 81.0301C223.927 81.5179 223.517 82.0259 223.106 82.5359C222.81 82.8937 222.505 83.2382 222.192 83.5811C221.769 84.0459 221.364 84.5203 220.968 85.0093C220.477 85.6165 219.963 86.1968 219.437 86.7739C219.123 87.1271 218.825 87.4895 218.528 87.8573C218.003 88.5064 217.449 89.1214 216.884 89.7355C216.446 90.2233 216.036 90.7313 215.624 91.2413C215.233 91.7159 214.819 92.1681 214.404 92.6228C214.091 92.9761 213.792 93.3385 213.495 93.7062C212.97 94.3554 212.416 94.9703 211.851 95.5845C211.413 96.0723 211.003 96.5803 210.592 97.0903C210.296 97.4481 209.991 97.7926 209.678 98.1354C209.255 98.6003 208.85 99.0747 208.454 99.5637C207.963 100.171 207.45 100.751 206.924 101.328C206.607 101.684 206.305 102.049 206.006 102.42C205.514 103.027 205.001 103.608 204.475 104.185C204.161 104.538 203.863 104.9 203.566 105.268C203.041 105.917 202.486 106.532 201.921 107.146C201.483 107.634 201.074 108.142 200.662 108.652C200.367 109.01 200.061 109.354 199.749 109.697C199.325 110.162 198.92 110.637 198.524 111.126C198.033 111.733 197.52 112.313 196.994 112.89C196.68 113.243 196.381 113.606 196.084 113.974C195.56 114.623 195.005 115.238 194.44 115.852C194.002 116.34 193.592 116.848 193.181 117.358C192.789 117.832 192.375 118.284 191.961 118.739C191.647 119.092 191.348 119.455 191.052 119.822C190.527 120.472 189.972 121.087 189.407 121.701C188.969 122.189 188.56 122.697 188.148 123.207C187.756 123.681 187.342 124.133 186.928 124.588C186.614 124.941 186.316 125.304 186.019 125.671C185.494 126.321 184.94 126.936 184.374 127.55C183.937 128.037 183.528 128.544 183.117 129.053C182.717 129.538 182.296 130.003 181.873 130.467C181.498 130.882 181.135 131.306 180.773 131.733C180.954 132.235 181.174 132.618 181.496 133.042C182.012 133.737 182.505 134.444 182.992 135.159C183.068 135.27 183.144 135.382 183.223 135.497C183.376 135.721 183.529 135.946 183.682 136.171C184.009 136.65 184.338 137.129 184.667 137.607C184.728 137.696 184.788 137.784 184.851 137.874C184.972 138.051 185.094 138.228 185.216 138.405C185.463 138.765 185.711 139.125 185.959 139.485C186.084 139.667 186.209 139.849 186.334 140.032C186.641 140.478 186.948 140.924 187.254 141.371C187.928 142.354 188.607 143.332 189.292 144.306C190.328 145.781 191.338 147.273 192.35 148.765C193.374 150.272 194.415 151.768 195.457 153.263C196.26 154.417 197.054 155.577 197.847 156.738C198.162 157.2 198.479 157.661 198.796 158.121C199.342 158.914 199.886 159.707 200.429 160.502C201.568 162.166 202.71 163.829 203.863 165.483C204.769 166.783 205.664 168.089 206.554 169.399C207.149 170.272 207.747 171.143 208.347 172.013C208.521 172.267 208.696 172.521 208.87 172.775C209.605 173.847 210.346 174.916 211.089 175.983C211.982 177.264 212.867 178.551 213.747 179.841C214.407 180.808 215.069 181.775 215.731 182.741C215.793 182.832 215.855 182.922 215.919 183.015C216.701 184.158 217.49 185.295 218.282 186.431C219.187 187.73 220.082 189.037 220.973 190.346C221.567 191.22 222.166 192.09 222.765 192.96C222.94 193.214 223.114 193.468 223.288 193.722C224.018 194.786 224.753 195.846 225.491 196.905C226.296 198.06 227.093 199.222 227.885 200.387C228.498 201.288 229.118 202.183 229.741 203.077C230.636 204.359 231.519 205.648 232.399 206.941C232.992 207.813 233.59 208.682 234.188 209.551C234.434 209.908 234.68 210.266 234.926 210.624C235.052 210.807 235.177 210.989 235.303 211.172C235.606 211.613 235.91 212.055 236.213 212.497C236.947 213.568 237.687 214.635 238.43 215.701C239.327 216.99 240.217 218.283 241.102 219.58C241.417 220.042 241.734 220.503 242.051 220.963C242.438 221.526 242.825 222.088 243.209 222.652C244.019 223.838 244.834 225.021 245.656 226.2C246.543 227.473 247.423 228.751 248.297 230.033C248.957 231.001 249.619 231.967 250.281 232.933C250.343 233.024 250.405 233.114 250.469 233.208C251.251 234.35 252.04 235.487 252.831 236.623C253.637 237.779 254.434 238.94 255.226 240.106C255.839 241.006 256.459 241.902 257.082 242.795C257.976 244.077 258.86 245.367 259.739 246.659C260.332 247.532 260.93 248.401 261.528 249.269C261.837 249.718 262.146 250.167 262.455 250.616C262.58 250.798 262.704 250.979 262.829 251.16C263.577 252.249 263.577 252.249 263.764 252.52C263.889 252.703 264.014 252.885 264.14 253.067C264.443 253.508 264.746 253.95 265.049 254.391C265.778 255.454 266.513 256.513 267.25 257.57C268.055 258.726 268.852 259.888 269.644 261.053C270.257 261.954 270.877 262.849 271.5 263.742C272.478 265.144 273.441 266.554 274.402 267.967C274.723 268.438 275.045 268.909 275.368 269.379C275.427 269.464 275.485 269.549 275.545 269.637C275.903 270.156 276.263 270.673 276.625 271.19C277.675 272.693 278.711 274.204 279.719 275.735C280.23 276.509 280.76 277.264 281.309 278.012C281.678 278.519 282.031 279.036 282.382 279.555C283.05 280.537 283.726 281.514 284.405 282.488C285.305 283.779 286.195 285.077 287.08 286.378C287.673 287.25 288.271 288.119 288.869 288.988C289.178 289.437 289.487 289.886 289.795 290.335C289.92 290.516 290.045 290.697 290.169 290.879C293.91 296.32 293.91 296.32 294.097 296.592C294.222 296.774 294.347 296.956 294.473 297.138C294.776 297.579 295.079 298.021 295.382 298.463C296.111 299.525 296.846 300.584 297.583 301.642C298.488 302.941 299.383 304.247 300.274 305.557C300.69 306.169 301.108 306.779 301.527 307.389C301.586 307.475 301.646 307.561 301.707 307.649C301.95 308.003 302.193 308.356 302.437 308.71C304.554 311.781 304.554 311.781 304.554 311.962C296.018 312.002 287.482 312.039 278.946 312.06C278.82 312.061 278.694 312.061 278.563 312.061C275.818 312.068 273.072 312.075 270.327 312.08C268.98 312.083 267.634 312.086 266.287 312.089C266.154 312.09 266.02 312.09 265.881 312.09C261.539 312.1 257.196 312.117 252.853 312.139C248.39 312.161 243.927 312.175 239.465 312.179C238.834 312.18 238.204 312.181 237.573 312.182C237.449 312.182 237.325 312.182 237.198 312.182C235.2 312.185 233.203 312.196 231.206 312.209C229.199 312.223 227.191 312.228 225.183 312.225C223.99 312.223 222.798 312.228 221.605 312.242C220.808 312.25 220.011 312.251 219.214 312.244C218.759 312.241 218.306 312.242 217.852 312.251C215.226 312.301 215.226 312.301 214.477 311.734C213.964 311.192 213.606 310.588 213.282 309.92C213.105 309.567 212.886 309.254 212.653 308.935C212.52 308.74 212.387 308.545 212.254 308.349C212.106 308.132 211.958 307.915 211.809 307.697C211.737 307.592 211.665 307.486 211.591 307.377C211.261 306.893 210.929 306.409 210.596 305.926C210.535 305.837 210.474 305.748 210.41 305.656C209.932 304.961 209.452 304.267 208.972 303.574C208.43 302.792 207.892 302.007 207.353 301.223C207.04 300.767 206.727 300.312 206.414 299.856C206.289 299.675 206.164 299.494 206.04 299.312C205.978 299.222 205.916 299.133 205.853 299.04C203.795 296.048 203.795 296.048 203.608 295.776C203.483 295.594 203.358 295.412 203.233 295.229C202.929 294.788 202.626 294.347 202.323 293.905C201.594 292.842 200.86 291.783 200.123 290.726C199.217 289.426 198.322 288.12 197.431 286.81C196.838 285.938 196.24 285.069 195.642 284.201C195.396 283.843 195.15 283.485 194.904 283.128C194.779 282.945 194.653 282.762 194.527 282.579C194.224 282.138 193.92 281.696 193.617 281.255C192.888 280.192 192.154 279.133 191.417 278.076C190.612 276.92 189.815 275.758 189.023 274.593C188.41 273.692 187.79 272.797 187.167 271.904C186.272 270.622 185.389 269.332 184.509 268.039C183.915 267.166 183.316 266.295 182.717 265.425C182.542 265.172 182.368 264.917 182.194 264.663C181.464 263.599 180.729 262.539 179.991 261.481C179.086 260.182 178.191 258.875 177.3 257.566C176.706 256.692 176.107 255.822 175.508 254.952C175.333 254.698 175.159 254.444 174.985 254.19C174.249 253.117 173.509 252.049 172.765 250.982C171.728 249.492 170.702 247.995 169.679 246.496C168.81 245.221 167.935 243.95 167.052 242.685C166.074 241.281 165.108 239.869 164.146 238.454C163.031 236.814 161.905 235.181 160.771 233.553C159.977 232.413 159.192 231.268 158.409 230.121C157.749 229.153 157.087 228.187 156.426 227.22C156.364 227.13 156.302 227.039 156.238 226.946C155.45 225.796 154.655 224.65 153.858 223.505C152.961 222.217 152.071 220.923 151.186 219.626C150.871 219.164 150.554 218.704 150.237 218.243C149.691 217.45 149.147 216.657 148.604 215.863C147.465 214.198 146.323 212.536 145.17 210.881C144.364 209.725 143.567 208.563 142.775 207.398C142.162 206.498 141.542 205.602 140.919 204.709C139.941 203.308 138.978 201.897 138.017 200.485C137.196 199.279 136.367 198.079 135.532 196.883C134.545 195.467 133.568 194.045 132.601 192.616C132.026 191.768 131.444 190.924 130.853 190.086C130.169 190.596 129.674 191.195 129.142 191.86C128.818 192.257 128.48 192.634 128.133 193.011C127.573 193.619 127.049 194.247 126.53 194.89C126.235 195.248 125.929 195.593 125.616 195.935C125.193 196.4 124.788 196.875 124.392 197.364C123.901 197.971 123.388 198.551 122.862 199.128C122.548 199.481 122.249 199.844 121.952 200.212C121.427 200.861 120.873 201.476 120.308 202.09C119.87 202.578 119.46 203.086 119.049 203.596C118.753 203.953 118.448 204.298 118.135 204.641C117.712 205.106 117.307 205.58 116.911 206.069C116.42 206.676 115.906 207.257 115.38 207.834C115.066 208.187 114.768 208.549 114.471 208.917C113.946 209.566 113.392 210.181 112.827 210.795C112.389 211.283 111.979 211.791 111.567 212.301C111.272 212.659 110.967 213.003 110.654 213.346C110.23 213.811 109.825 214.285 109.43 214.774C108.939 215.382 108.425 215.962 107.899 216.539C107.585 216.892 107.287 217.255 106.99 217.622C106.465 218.272 105.911 218.887 105.345 219.501C104.908 219.988 104.498 220.497 104.086 221.007C103.791 221.364 103.485 221.709 103.173 222.052C102.749 222.516 102.344 222.991 101.949 223.48C101.457 224.087 100.944 224.667 100.418 225.244C100.104 225.598 99.8055 225.96 99.5087 226.328C98.9837 226.977 98.4295 227.592 97.8643 228.206C97.4263 228.694 97.0166 229.202 96.605 229.712C96.3097 230.07 96.0041 230.414 95.6916 230.757C95.268 231.222 94.863 231.696 94.4674 232.185C93.9762 232.793 93.4627 233.373 92.9366 233.95C92.6227 234.303 92.3243 234.666 92.0275 235.033C91.5025 235.682 90.9482 236.297 90.383 236.912C89.9451 237.399 89.5354 237.907 89.1238 238.417C88.7321 238.892 88.3183 239.344 87.9038 239.799C87.5899 240.152 87.2915 240.514 86.9947 240.882C86.4697 241.531 85.9154 242.146 85.3502 242.76C84.9123 243.248 84.5026 243.756 84.0909 244.266C83.7956 244.624 83.4901 244.969 83.1776 245.311C82.7539 245.776 82.3489 246.251 81.9534 246.74C81.4623 247.347 80.9489 247.927 80.4231 248.504C80.1064 248.86 79.8048 249.225 79.505 249.596C79.0137 250.203 78.5002 250.784 77.9742 251.361C77.6603 251.714 77.3619 252.076 77.0651 252.444C76.5401 253.093 75.9858 253.708 75.4206 254.322C74.9826 254.81 74.5729 255.318 74.1613 255.828C73.7696 256.303 73.3558 256.755 72.9414 257.21C72.6274 257.563 72.329 257.925 72.0323 258.293C71.5073 258.942 70.953 259.557 70.3878 260.171C69.9498 260.659 69.5401 261.167 69.1285 261.677C68.7368 262.152 68.323 262.604 67.9085 263.059C67.5946 263.412 67.2962 263.774 66.9994 264.142C66.4744 264.791 65.9202 265.406 65.3549 266.02C64.917 266.508 64.5073 267.016 64.0957 267.526C63.8003 267.884 63.4948 268.228 63.1823 268.571C62.7587 269.036 62.3537 269.51 61.9581 269.999C61.4669 270.607 60.9534 271.187 60.4273 271.764C60.1134 272.117 59.815 272.48 59.5182 272.847C58.9932 273.497 58.4389 274.112 57.8737 274.726C57.4358 275.213 57.0261 275.722 56.6145 276.232C56.3191 276.589 56.0136 276.934 55.7011 277.277C55.2774 277.741 54.8725 278.216 54.4769 278.705C53.9856 279.312 53.4721 279.892 52.9461 280.469C52.6322 280.823 52.3338 281.185 52.037 281.553C51.512 282.202 50.9577 282.817 50.3925 283.431C49.9545 283.919 49.5449 284.427 49.1332 284.937C48.8379 285.295 48.5324 285.639 48.2199 285.982C47.7962 286.447 47.3912 286.921 46.9957 287.41C46.5044 288.018 45.9909 288.598 45.4649 289.175C45.151 289.528 44.8526 289.891 44.5558 290.258C44.0308 290.907 43.4765 291.522 42.9113 292.137C42.4733 292.624 42.0636 293.132 41.652 293.642C41.2603 294.117 40.8465 294.569 40.4321 295.024C40.1181 295.377 39.8197 295.739 39.5229 296.107C38.998 296.756 38.4437 297.371 37.8785 297.985C37.4405 298.473 37.0308 298.981 36.6192 299.491C36.3239 299.849 36.0183 300.194 35.7058 300.536C35.2822 301.001 34.8772 301.476 34.4816 301.965C33.9905 302.572 33.4772 303.152 32.9514 303.729C32.6346 304.085 32.3331 304.45 32.0332 304.821C31.542 305.428 31.0285 306.009 30.5024 306.586C30.1885 306.939 29.8901 307.301 29.5933 307.669C29.0692 308.317 28.516 308.931 27.9515 309.544C27.5024 310.045 27.0808 310.565 26.6614 311.09C26.5713 311.199 26.4812 311.307 26.3883 311.418C26.2776 311.561 26.2776 311.561 26.1646 311.707C25.7243 312.058 25.3371 312.036 24.7976 312.028C24.6916 312.028 24.5856 312.029 24.4764 312.029C24.1209 312.03 23.7655 312.027 23.41 312.024C23.1553 312.024 22.9006 312.024 22.6459 312.024C21.9541 312.024 21.2622 312.021 20.5703 312.017C19.8475 312.014 19.1246 312.014 18.4017 312.013C17.0326 312.011 15.6635 312.007 14.2945 312.001C12.7359 311.995 11.1773 311.992 9.61878 311.99C6.4125 311.984 3.20625 311.974 0 311.962C0.232765 311.468 0.516794 311.129 0.892646 310.73C1.36484 310.222 1.81714 309.705 2.25287 309.165C2.64543 308.679 3.0475 308.208 3.46857 307.746C3.89222 307.281 4.29719 306.806 4.69277 306.317C5.18401 305.71 5.69751 305.13 6.22355 304.553C6.53748 304.2 6.83587 303.837 7.13266 303.469C7.65765 302.82 8.21193 302.205 8.77715 301.591C9.21511 301.103 9.6248 300.595 10.0364 300.085C10.3317 299.727 10.6373 299.383 10.9498 299.04C11.3734 298.575 11.7784 298.101 12.174 297.612C12.6651 297.005 13.1784 296.425 13.7042 295.848C14.021 295.492 14.3225 295.126 14.6224 294.755C15.1136 294.148 15.6271 293.568 16.1532 292.991C16.4671 292.638 16.7655 292.275 17.0623 291.908C17.5873 291.258 18.1416 290.643 18.7068 290.029C19.1447 289.541 19.5544 289.033 19.966 288.523C20.2614 288.166 20.5669 287.821 20.8794 287.478C21.3031 287.013 21.708 286.539 22.1036 286.05C22.5948 285.443 23.1083 284.863 23.6344 284.285C23.9483 283.932 24.2467 283.57 24.5435 283.202C25.0685 282.553 25.6228 281.938 26.188 281.324C26.6259 280.836 27.0356 280.328 27.4473 279.818C27.7426 279.46 28.0481 279.116 28.3606 278.773C28.7843 278.308 29.1893 277.834 29.5848 277.345C30.0759 276.738 30.5893 276.158 31.1151 275.581C31.4318 275.224 31.7334 274.859 32.0332 274.488C32.5245 273.881 33.038 273.301 33.564 272.724C33.8779 272.37 34.1763 272.008 34.4731 271.64C34.9981 270.991 35.5524 270.376 36.1176 269.762C36.5556 269.274 36.9653 268.766 37.3769 268.256C37.6722 267.898 37.9777 267.554 38.2902 267.211C38.7139 266.746 39.1189 266.272 39.5144 265.783C40.0057 265.176 40.5192 264.595 41.0452 264.018C41.3592 263.665 41.6576 263.303 41.9543 262.935C42.4793 262.286 43.0336 261.671 43.5988 261.057C44.0368 260.569 44.4465 260.061 44.8581 259.551C45.1534 259.193 45.4589 258.848 45.7715 258.506C46.1951 258.041 46.6001 257.566 46.9957 257.077C47.4869 256.47 48.0004 255.89 48.5264 255.313C48.8404 254.96 49.1388 254.597 49.4356 254.229C49.9606 253.58 50.5148 252.965 51.0801 252.351C51.518 251.863 51.9277 251.355 52.3393 250.845C52.6346 250.487 52.9402 250.143 53.2527 249.8C53.6763 249.335 54.0813 248.861 54.4769 248.372C54.9681 247.765 55.4816 247.184 56.0077 246.607C56.3216 246.254 56.62 245.892 56.9168 245.524C57.4418 244.875 57.9961 244.26 58.5613 243.646C58.9992 243.158 59.4089 242.65 59.8205 242.14C60.1159 241.782 60.4214 241.438 60.7339 241.095C61.1576 240.63 61.5625 240.155 61.9581 239.667C62.4494 239.059 62.9629 238.479 63.4889 237.902C63.8028 237.549 64.1012 237.186 64.398 236.819C64.923 236.169 65.4773 235.554 66.0425 234.94C66.4805 234.453 66.8901 233.944 67.3018 233.434C67.5971 233.077 67.9026 232.732 68.2151 232.389C68.6388 231.924 69.0438 231.45 69.4393 230.961C69.9304 230.354 70.4438 229.774 70.9696 229.197C71.2863 228.841 71.5879 228.475 71.8877 228.105C72.379 227.497 72.8925 226.917 73.4185 226.34C73.7324 225.987 74.0308 225.624 74.3276 225.257C74.8526 224.608 75.4069 223.993 75.9721 223.378C76.4101 222.891 76.8198 222.383 77.2314 221.873C77.5267 221.515 77.8322 221.17 78.1448 220.827C78.5684 220.363 78.9734 219.888 79.369 219.399C79.86 218.792 80.3734 218.212 80.8992 217.635C81.2159 217.279 81.5175 216.913 81.8174 216.543C82.3086 215.936 82.8221 215.355 83.3481 214.778C83.6621 214.425 83.9605 214.063 84.2572 213.695C84.7822 213.046 85.3365 212.431 85.9017 211.817C86.3397 211.329 86.7494 210.821 87.161 210.311C87.5527 209.836 87.9665 209.384 88.381 208.929C88.6949 208.576 88.9933 208.214 89.2901 207.846C89.8151 207.197 90.3693 206.582 90.9346 205.968C91.3725 205.48 91.7822 204.972 92.1938 204.462C92.4892 204.104 92.7947 203.759 93.1072 203.417C93.5308 202.952 93.9358 202.477 94.3314 201.988C94.8225 201.381 95.3358 200.801 95.8616 200.224C96.1784 199.868 96.4799 199.503 96.7798 199.132C97.271 198.525 97.7845 197.944 98.3106 197.367C98.6245 197.014 98.9229 196.652 99.2197 196.284C99.7447 195.635 100.299 195.02 100.864 194.406C101.302 193.918 101.712 193.41 102.123 192.9C102.419 192.542 102.724 192.198 103.037 191.855C103.46 191.39 103.865 190.915 104.261 190.426C104.752 189.819 105.266 189.239 105.792 188.662C106.106 188.309 106.404 187.946 106.701 187.579C107.226 186.929 107.78 186.314 108.345 185.7C108.783 185.212 109.193 184.704 109.605 184.194C109.9 183.837 110.206 183.492 110.518 183.149C110.942 182.684 111.347 182.21 111.742 181.721C112.233 181.114 112.747 180.534 113.273 179.956C113.587 179.603 113.885 179.241 114.182 178.873C114.707 178.224 115.261 177.609 115.827 176.995C116.263 176.508 116.672 176.002 117.083 175.493C117.489 175.001 117.915 174.531 118.347 174.062C118.434 173.963 118.521 173.865 118.611 173.764C118.696 173.675 118.78 173.587 118.867 173.495C119.06 173.22 119.06 173.22 118.935 172.887C118.746 172.536 118.546 172.207 118.322 171.876C118.225 171.733 118.128 171.59 118.028 171.443C117.472 170.633 116.909 169.827 116.347 169.021C115.699 168.092 115.057 167.159 114.42 166.223C114.335 166.098 114.25 165.973 114.162 165.844C113.998 165.602 113.833 165.361 113.669 165.119C112.746 163.764 111.812 162.416 110.875 161.071C109.982 159.79 109.097 158.503 108.217 157.213C107.845 156.668 107.473 156.124 107.1 155.579C106.99 155.418 106.99 155.418 106.878 155.254C106.227 154.302 105.573 153.352 104.92 152.402C104.672 152.042 104.424 151.681 104.177 151.321C104.051 151.139 103.926 150.956 103.8 150.774C103.497 150.332 103.194 149.891 102.891 149.449C102.162 148.387 101.427 147.328 100.69 146.27C99.8848 145.114 99.0877 143.953 98.2958 142.788C97.683 141.887 97.063 140.992 96.4397 140.098C95.4622 138.697 94.4986 137.287 93.5377 135.874C93.2167 135.403 92.8946 134.932 92.5716 134.462C92.5132 134.377 92.4548 134.292 92.3946 134.204C92.037 133.685 91.677 133.167 91.3155 132.651C90.2649 131.148 89.2293 129.637 88.2212 128.105C87.7109 127.333 87.1817 126.579 86.634 125.833C86.2498 125.305 85.8821 124.766 85.5155 124.226C85.3619 124.001 85.2084 123.776 85.0548 123.55C84.9416 123.384 84.9416 123.384 84.8261 123.215C84.4989 122.735 84.1699 122.256 83.8407 121.778C83.78 121.69 83.7194 121.602 83.6569 121.511C83.5354 121.334 83.4138 121.157 83.2922 120.981C82.9818 120.529 82.6716 120.078 82.3614 119.627C82.2368 119.446 82.1121 119.264 81.9874 119.083C81.2393 117.995 81.2393 117.995 81.0523 117.723C80.9273 117.541 80.8023 117.359 80.6773 117.177C80.3703 116.731 80.0635 116.284 79.7574 115.837C79.235 115.075 78.712 114.314 78.1798 113.559C77.2022 112.172 76.2461 110.773 75.3129 109.355C74.795 108.571 74.2587 107.806 73.7028 107.048C73.3691 106.591 73.048 106.127 72.7294 105.659C72.6006 105.471 72.4719 105.283 72.3431 105.095C72.2788 105.001 72.2144 104.907 72.1482 104.81C71.9019 104.45 71.6548 104.091 71.4076 103.732C70.7953 102.842 70.1849 101.951 69.5754 101.06C68.4365 99.395 67.2943 97.7329 66.1408 96.0781C65.335 94.922 64.5377 93.7605 63.7459 92.5948C63.1369 91.6994 62.5192 90.8105 61.8986 89.9231C61.0419 88.6977 60.2064 87.4594 59.3843 86.2104C58.8732 85.4367 58.343 84.6816 57.7943 83.934C57.4253 83.4271 57.0728 82.9099 56.7213 82.3909C56.0566 81.4139 55.3836 80.4432 54.7064 79.4749C53.8442 78.2409 53.0029 76.9942 52.1752 75.7368C51.6646 74.9639 51.135 74.2095 50.5869 73.4627C50.209 72.9436 49.8472 72.4143 49.4866 71.8831C49.3325 71.6572 49.1784 71.4312 49.0243 71.2052C48.8695 70.9778 48.7147 70.7503 48.5599 70.5229C47.6201 69.1439 46.675 67.7687 45.7205 66.3998C44.8204 65.1089 43.9313 63.811 43.0462 62.5098C42.4521 61.6363 41.8533 60.7659 41.254 59.8959C41.0793 59.642 40.9049 59.3879 40.7307 59.1337C39.9952 58.0614 39.2546 56.9929 38.5113 55.926C37.6141 54.6382 36.7253 53.345 35.8406 52.0486C35.5189 51.5778 35.1959 51.108 34.8727 50.6382C34.7813 50.5053 34.7813 50.5053 34.6881 50.3698C34.5059 50.105 34.3238 49.8403 34.1416 49.5755C33.8978 49.2213 33.6541 48.8671 33.4105 48.5128C33.3489 48.4234 33.2874 48.3339 33.224 48.2418C32.8934 47.761 32.5635 47.2797 32.2346 46.7977C31.4306 45.6198 30.6216 44.4457 29.8059 43.276C29.0058 42.1286 28.2144 40.9756 27.4282 39.8187C26.8154 38.9181 26.1954 38.0228 25.5722 37.1295C24.5947 35.7283 23.631 34.318 22.6701 32.9054C21.8492 31.6996 21.0199 30.4998 20.1855 29.3033C19.1995 27.8895 18.2245 26.4688 17.2567 25.0425C16.4315 23.8263 15.5972 22.617 14.7542 21.4131C13.697 19.901 12.6552 18.3806 11.6408 16.8394C11.1333 16.0712 10.6067 15.3218 10.062 14.5796C9.62753 13.9809 9.21352 13.3686 8.79894 12.756C8.61937 12.4917 8.43978 12.2275 8.26016 11.9633C8.17341 11.8355 8.08666 11.7078 7.99728 11.5762C7.06956 10.2116 6.129 8.85607 5.18585 7.50215C4.3668 6.32628 3.55324 5.14688 2.74595 3.96292C2.43835 3.5118 2.12924 3.06176 1.8193 2.61226C1.73823 2.49447 1.65717 2.37669 1.57365 2.25533C1.41826 2.0296 1.26261 1.80404 1.10667 1.57868C1.00205 1.42646 1.00205 1.42646 0.895302 1.27117C0.8339 1.18219 0.772498 1.09322 0.709235 1.00155C0.542857 0.741625 0.407986 0.476231 0.272044 0.199461Z" fill="#006B0A"/>
</svg>
